<?xml version="1.0" encoding="UTF-8"?>
<svg version="1.1" xmlns="http://www.w3.org/2000/svg" width="2000" height="2000">
<path d="M0 0 C5.41317291 0.01034951 10.8263041 -0.00297111 16.23947069 -0.01297333 C25.68290067 -0.02728099 35.12623884 -0.02706878 44.56967279 -0.01678469 C58.61337088 -0.00153305 72.65699281 -0.00945222 86.70069054 -0.02161792 C110.34584295 -0.0413792 133.99096044 -0.04223627 157.63611719 -0.03131106 C181.04819081 -0.02049909 204.46024741 -0.0163053 227.87232324 -0.02139284 C229.34805356 -0.02170277 230.82378387 -0.02201139 232.29951419 -0.02231872 C238.23117613 -0.0235608 244.16283807 -0.02483548 250.0945 -0.02615778 C266.67173692 -0.02982422 283.2489739 -0.03210779 299.82621118 -0.03330233 C300.58084214 -0.03335691 301.3354731 -0.0334115 302.11297167 -0.03346773 C326.12702659 -0.0351027 350.14107634 -0.0306084 374.15512964 -0.02190401 C374.93299192 -0.02162302 375.7108542 -0.02134202 376.51228807 -0.02105251 C389.14099541 -0.01647376 401.76970264 -0.01159542 414.39840985 -0.00669182 C464.47251266 0.01273068 514.54657267 0.01182914 564.6206753 -0.00761416 C577.24330505 -0.01249968 589.86593482 -0.0173442 602.4885647 -0.02190401 C603.26598697 -0.02218581 604.04340925 -0.0224676 604.84438977 -0.02275793 C628.83542158 -0.03139408 652.82644984 -0.03503762 676.81748316 -0.03330233 C677.57154665 -0.03324799 678.32561014 -0.03319366 679.10252404 -0.03313767 C695.66193131 -0.03188727 712.22133819 -0.02935177 728.78074509 -0.02566032 C734.70682336 -0.02434399 740.63290165 -0.02309163 746.55897995 -0.02185747 C748.03297695 -0.02154792 749.50697396 -0.02123299 750.98097096 -0.02091269 C774.37953262 -0.01584188 797.77807557 -0.02150199 821.17663477 -0.03231327 C845.41853946 -0.04339173 869.6603999 -0.03918823 893.90229866 -0.01818808 C907.84693727 -0.00650425 921.79147377 -0.00558678 935.73610958 -0.02077278 C945.08085889 -0.02982072 954.42552729 -0.02402051 963.77026472 -0.0067537 C969.0740981 0.00265205 974.37773048 0.00624894 979.68155667 -0.00837763 C1076.91702762 -0.25654984 1176.01783859 23.42069876 1259.55085108 79.32197569 C1261.15594559 80.40221712 1262.77525468 81.46126292 1264.39606592 82.51777647 C1278.74733612 91.89602807 1292.40164086 102.13673564 1305.58649561 113.08271787 C1307.12345082 114.35025184 1308.67842883 115.59586229 1310.23590967 116.83808897 C1322.58897354 126.69503226 1333.76255426 137.85397124 1344.96170923 148.97850034 C1346.10205885 150.11078727 1347.24388276 151.24159169 1348.38730738 152.37077329 C1354.76369542 158.67609759 1360.80179914 165.03526005 1366.36359522 172.08198545 C1368.40258273 174.6141329 1370.55139993 177.00343936 1372.75934717 179.38887022 C1433.96743336 246.83404982 1471.0321501 339.92887212 1484.00934717 429.01387022 C1484.11217005 429.70843321 1484.21499292 430.40299619 1484.32093164 431.11860655 C1485.07190291 436.24116799 1485.71654716 441.37220203 1486.32184717 446.51387022 C1486.41189752 447.27214072 1486.50194788 448.03041122 1486.59472703 448.81165961 C1488.90416165 469.24836289 1488.60939382 489.75235241 1488.58498364 510.28537485 C1488.5807753 515.70256618 1488.58823662 521.11974441 1488.59413615 526.53693245 C1488.60286275 536.01198592 1488.60422292 545.48701777 1488.60063288 554.96207426 C1488.59530824 569.05264077 1488.60143886 583.14318648 1488.60971581 597.23375073 C1488.62451431 623.1373023 1488.62680822 649.04084471 1488.62439543 674.94439971 C1488.62405694 678.60905066 1488.62373485 682.27370161 1488.62342975 685.93835256 C1488.62333818 687.03035062 1488.62333818 687.03035062 1488.62324477 688.14440925 C1488.62197035 704.31121585 1488.62457885 720.47802113 1488.62795581 736.64482734 C1488.62872657 740.34147292 1488.62947131 744.03811852 1488.63022083 747.73476411 C1488.63052252 749.21850144 1488.6308244 750.70223876 1488.63112647 752.18597609 C1488.63127615 752.92146497 1488.63142583 753.65695384 1488.63158004 754.41473025 C1488.63188358 755.9024901 1488.63218826 757.39024994 1488.63249409 758.87800978 C1488.64116177 801.06785594 1488.64581493 843.25770095 1488.64154646 885.44754789 C1488.6414684 886.22803274 1488.64139034 887.0085176 1488.64130992 887.8126535 C1488.6404372 896.51492519 1488.63950794 905.21719688 1488.63855929 913.91946856 C1488.63847378 914.70508199 1488.63838827 915.49069542 1488.63830017 916.30011531 C1488.63758958 922.82599315 1488.63758958 922.82599315 1488.63725794 925.8312989 C1488.63172384 976.06664241 1488.63926174 1026.30196753 1488.65802881 1076.53730772 C1488.66275148 1089.1944198 1488.66743219 1101.85153189 1488.67186567 1114.50864408 C1488.67213899 1115.28811741 1488.67241232 1116.06759073 1488.67269392 1116.87068446 C1488.68107268 1140.91651335 1488.68574558 1164.96234072 1488.68657324 1189.00817106 C1488.6865996 1189.76373674 1488.68662597 1190.51930243 1488.68665314 1191.29776404 C1488.68719406 1207.88873261 1488.68682114 1224.47970105 1488.68561342 1241.07066958 C1488.68518784 1247.00799418 1488.6848227 1252.94531878 1488.68448398 1258.88264338 C1488.68439868 1260.35954468 1488.68430974 1261.83644598 1488.68421716 1263.31334729 C1488.68277202 1286.78713567 1488.68987102 1310.2609115 1488.70122112 1333.73469688 C1488.71290348 1358.05317937 1488.71339871 1382.37163887 1488.7013777 1406.69012157 C1488.69476648 1420.68966947 1488.69633993 1434.68915852 1488.70996621 1448.68870167 C1488.71824844 1458.06040209 1488.71546447 1467.43205871 1488.70399094 1476.80375561 C1488.69777172 1482.12980569 1488.69603617 1487.45574149 1488.70785428 1492.78178469 C1488.76759749 1521.63855552 1487.74943628 1550.03175663 1483.07184717 1578.57637022 C1482.86350244 1579.87324766 1482.65515772 1581.1701251 1482.44049951 1582.50630186 C1469.23305957 1662.81911006 1436.21113845 1740.12086204 1386.32184717 1804.51387022 C1385.90757471 1805.05285947 1385.49330225 1805.59184873 1385.06647608 1806.147171 C1379.96920658 1812.77305518 1374.75256934 1819.28272952 1369.32184717 1825.63887022 C1368.88445215 1826.15175596 1368.44705713 1826.6646417 1367.99640772 1827.19306944 C1359.24850472 1837.33179336 1350.02669388 1846.99565912 1340.5606167 1856.46040342 C1338.817964 1858.2052583 1337.08351554 1859.95800764 1335.34919092 1861.71113584 C1329.39114352 1867.69833819 1323.37146934 1873.34780955 1316.72956201 1878.57978819 C1314.20364721 1880.60881851 1311.82402429 1882.75085457 1309.44684717 1884.95137022 C1237.46930347 1950.27268339 1135.61930605 1989.38217785 975.41958758 2000.90547424 C970.03146869 2000.89865488 964.64337673 2000.9094844 959.25526395 2000.91787008 C949.84795561 2000.93014607 940.4406972 2000.93148908 931.03338358 2000.92531965 C917.0430914 2000.91616953 903.05284482 2000.9243077 889.06255611 2000.93561089 C863.33831675 2000.9557811 837.61410019 2000.95735128 811.88985509 2000.95196027 C808.25487896 2000.9512044 804.61990282 2000.95047679 800.98492667 2000.9497783 C799.90165719 2000.94956966 799.90165719 2000.94956966 798.79650348 2000.94935681 C782.73469245 2000.94639439 766.67288416 2000.94942729 750.61107362 2000.95367459 C748.4075725 2000.95425674 746.20407139 2000.95482559 744.00057027 2000.95539022 C738.09244448 2000.95690541 732.1843187 2000.95843233 726.27619293 2000.95998322 C685.07448673 2000.97072711 643.87278307 2000.97545522 602.67107603 2000.96751306 C601.89576485 2000.96736476 601.12045366 2000.96721645 600.3216482 2000.96706365 C591.6777563 2000.96540492 583.03386442 2000.96365532 574.38997255 2000.96187064 C573.60968205 2000.96170962 572.82939155 2000.96154859 572.02545589 2000.96138269 C565.69764075 2000.9600759 565.69764075 2000.9600759 562.5589 2000.9594215 C512.66940356 2000.94903454 462.77994241 2000.95679308 412.89045069 2000.98042295 C400.31967063 2000.98636732 387.74889056 2000.99225929 375.17811033 2000.99783228 C374.40387089 2000.99817605 373.62963144 2000.99851982 372.83193019 2000.998874 C348.933689 2001.00941702 325.03545076 2001.01499592 301.13720724 2001.01538942 C300.01022542 2001.01540859 300.01022542 2001.01540859 298.86047629 2001.01542815 C282.3599079 2001.01565655 265.85933977 2001.01464941 249.35877152 2001.0125191 C243.45333947 2001.01176447 237.54790742 2001.01108624 231.64247536 2001.01043895 C230.17361099 2001.01027626 228.70474662 2001.01010859 227.23588226 2001.00993593 C203.92759178 2001.0072259 180.61932287 2001.01572108 157.31103702 2001.02979004 C133.15322517 2001.04426481 108.99545732 2001.04366001 84.83764634 2001.02641532 C70.94497315 2001.01690447 57.05240469 2001.01817953 43.15973865 2001.03565001 C33.84434894 2001.04623482 24.529038 2001.04190714 15.21365591 2001.02616997 C9.92978073 2001.01763978 4.64610879 2001.0148573 -0.637755 2001.03043929 C-21.66301638 2001.08802471 -42.47824435 2000.58490537 -63.42552927 1998.66223238 C-64.329615 1998.5797244 -65.23370072 1998.49721642 -66.16518299 1998.4122082 C-82.89620186 1996.84912164 -99.27237233 1994.14920313 -115.67815283 1990.51387022 C-116.79657568 1990.26878721 -117.91499853 1990.0237042 -119.06731299 1989.77119444 C-176.54506451 1977.00500241 -233.92567988 1954.77614153 -282.90715674 1921.70576475 C-284.51225124 1920.62552331 -286.13156034 1919.56647752 -287.75237158 1918.50996397 C-302.72941695 1908.72278152 -316.97782943 1898.00982857 -330.67815283 1886.51387022 C-331.29174658 1885.99937315 -331.90534033 1885.48487608 -332.53752783 1884.95478819 C-334.33925561 1883.43843021 -336.13534947 1881.91576619 -337.92815283 1880.38887022 C-338.68660498 1879.74389585 -338.68660498 1879.74389585 -339.46037939 1879.0858917 C-349.57496146 1870.384987 -359.19482986 1861.18382388 -368.62468603 1851.75263975 C-370.36954091 1850.00998704 -372.12229025 1848.27553859 -373.87541845 1846.54121397 C-379.87867041 1840.56719305 -385.54101775 1834.52766774 -390.79289892 1827.87275694 C-392.65394145 1825.54416423 -394.60272499 1823.33660451 -396.61565283 1821.13887022 C-455.09336235 1755.86945821 -491.96693814 1667.38030181 -511.80958059 1512.32617376 C-511.81123343 1510.51178662 -511.81332116 1508.69739984 -511.8158007 1506.88301364 C-511.82133592 1501.91034652 -511.82070073 1496.93769672 -511.81902311 1491.96502751 C-511.81828924 1486.54976433 -511.82332143 1481.13450593 -511.82759812 1475.71924482 C-511.83516342 1464.98442622 -511.83737044 1454.24961261 -511.83792718 1443.51479163 C-511.83884229 1430.65368035 -511.84551423 1417.79257364 -511.852274 1404.93146434 C-511.86794122 1374.5849855 -511.87402104 1344.23850728 -511.87868103 1313.8920251 C-511.88106668 1298.44284142 -511.88477067 1282.99365817 -511.88871813 1267.54447482 C-511.90138197 1217.95273957 -511.91216505 1168.36100435 -511.91555859 1118.76926751 C-511.91572083 1116.40011415 -511.91588639 1114.03096079 -511.91605297 1111.66180743 C-511.91638676 1106.91067374 -511.91671724 1102.15954005 -511.91704753 1097.40840635 C-511.91743442 1091.8463433 -511.91782403 1086.28428025 -511.91821859 1080.7222172 C-511.91833101 1079.13032782 -511.91844243 1077.53843844 -511.91855285 1075.94654906 C-511.92210023 1024.84980593 -511.93717059 973.75307687 -511.96049059 922.65633911 C-511.9772455 885.92959408 -511.99271287 849.20285171 -511.99722555 812.47610281 C-511.99731904 811.71986593 -511.99741252 810.96362905 -511.99750884 810.18447591 C-511.99952847 793.57827975 -512.00068404 776.97208363 -512.00103743 760.36588736 C-512.00117359 754.42282045 -512.00138258 748.47975354 -512.00163068 742.53668663 C-512.00169224 741.05831277 -512.00175056 739.5799389 -512.00180563 738.10156504 C-512.0027233 714.59959689 -512.01266561 691.09764349 -512.02726312 667.59568018 C-512.0423294 643.24136456 -512.04644288 618.8870701 -512.03817016 594.53275084 C-512.03372697 580.51103471 -512.03752187 566.48937897 -512.05340866 552.46767082 C-512.06320709 543.08084194 -512.06193432 533.69405505 -512.05197244 524.30722649 C-512.04661525 518.97235709 -512.04575622 513.63760307 -512.05848116 508.30274355 C-512.12303328 479.44795176 -511.12243497 451.0547001 -506.42815283 422.51387022 C-506.21908301 421.21812071 -506.01001318 419.92237119 -505.79460791 418.58735655 C-492.55523127 338.22530433 -459.61700958 260.97085345 -409.67815283 196.51387022 C-409.26388037 195.97488096 -408.84960791 195.4358917 -408.42278174 194.88056944 C-403.34375267 188.27839578 -398.14772371 181.78835367 -392.74065283 175.45137022 C-392.31163672 174.94686338 -391.8826206 174.44235655 -391.440604 173.92256162 C-382.34641365 163.37205301 -372.68795732 153.33697551 -362.84148291 143.49189756 C-361.10770339 141.75591066 -359.38213745 140.01201911 -357.65666845 138.26777647 C-351.69959325 132.28144286 -345.67488684 126.63893183 -339.03923681 121.40132139 C-336.71007113 119.53938572 -334.50163973 117.58996501 -332.30315283 115.57637022 C-266.19069847 56.34334233 -176.32090068 19.40323848 0 0 Z " fill="#000000" transform="translate(511.67815282940865,-0.5138702169060707)"/>
<path d="M0 0 C90.75 0 181.5 0 275 0 C280.62460212 13.4990451 280.62460212 13.4990451 282.40917969 18.49145508 C282.81508331 19.62203842 283.22098694 20.75262177 283.63919067 21.91746521 C284.0624765 23.106147 284.48576233 24.2948288 284.921875 25.51953125 C285.38324796 26.80784708 285.84491571 28.09605738 286.30685425 29.38417053 C287.28403518 32.11070355 288.2593863 34.8378808 289.23321533 37.56561279 C290.77510838 41.88426437 292.32142925 46.20132196 293.86865234 50.51806641 C294.39218452 51.97881968 294.91571357 53.43957408 295.4392395 54.90032959 C295.69813084 55.6226754 295.95702217 56.34502121 296.2237587 57.08925629 C297.00769916 59.27702746 297.79124509 61.46493956 298.57467651 63.65289307 C302.90143741 75.73539446 307.25480659 87.80813764 311.625 99.875 C312.29850826 101.7354309 312.97201083 103.59586385 313.64550781 105.45629883 C315.02402672 109.26364951 316.40297948 113.07084273 317.78222656 116.87792969 C320.22810406 123.6292349 322.67268256 130.38101022 325.1171875 137.1328125 C326.00927584 139.59676161 326.9013657 142.06071017 327.79345703 144.5246582 C328.23965393 145.75705231 328.68585083 146.98944641 329.14556885 148.25918579 C330.49524404 151.98686449 331.84501923 155.71450697 333.19482422 159.44213867 C340.78142956 180.39367779 348.36159553 201.34754175 355.93945312 222.30224609 C359.10371303 231.05212079 362.26862505 239.80175963 365.43347168 248.55142212 C367.20567296 253.45093898 368.97783452 258.3504702 370.75 263.25 C371.45833314 265.2083334 372.16666648 267.16666674 372.875 269.125 C374.29166667 273.04166667 375.70833333 276.95833333 377.125 280.875 C377.47564514 281.84443039 377.82629028 282.81386078 378.18756104 283.81266785 C378.89569168 285.77044141 379.60382157 287.72821526 380.31195068 289.68598938 C382.08587881 294.5903894 383.85982036 299.49478457 385.63378906 304.39916992 C388.78436719 313.10942473 391.93486688 321.81970785 395.08483887 330.53018188 C403.21851242 353.02182921 411.356788 375.51180423 419.5 398 C427.98504354 421.43219361 436.46435832 444.86645255 444.93945312 468.30224609 C448.10371303 477.05212079 451.26862505 485.80175963 454.43347168 494.55142212 C456.20567296 499.45093898 457.97783452 504.3504702 459.75 509.25 C460.45833314 511.2083334 461.16666648 513.16666674 461.875 515.125 C463.29166667 519.04166667 464.70833333 522.95833333 466.125 526.875 C466.47564514 527.84443039 466.82629028 528.81386078 467.18756104 529.81266785 C467.89569168 531.77044141 468.60382157 533.72821526 469.31195068 535.68598938 C471.08587881 540.5903894 472.85982036 545.49478457 474.63378906 550.39916992 C477.78436719 559.10942473 480.93486688 567.81970785 484.08483887 576.53018188 C492.21851242 599.02182921 500.356788 621.51180423 508.5 644 C516.98504354 667.43219361 525.46435832 690.86645255 533.93945312 714.30224609 C536.03754097 720.10392052 538.13591952 725.90548978 540.234375 731.70703125 C540.58580566 732.67862183 540.93723633 733.6502124 541.29931641 734.65124512 C542.36620636 737.60083173 543.43310204 740.55041628 544.5 743.5 C552.32525446 765.1339744 552.32525446 765.1339744 556.08483887 775.53018188 C564.21851242 798.02182921 572.356788 820.51180423 580.5 843 C590.52548741 870.68626479 590.52548741 870.68626479 595.515625 884.48046875 C595.8717688 885.46488449 596.2279126 886.44930023 596.59484863 887.46354675 C598.32867009 892.25646441 600.06163343 897.04968955 601.79296875 901.84350586 C605.04237806 910.83847846 608.29985298 919.83033806 611.57989502 928.81419373 C613.17246638 933.17747104 614.76124686 937.54212434 616.34973145 941.90689087 C617.10914647 943.99024522 617.87042149 946.07292262 618.63366699 948.15487671 C619.68755007 951.0299514 620.73505653 953.90727622 621.78125 956.78515625 C622.25023712 958.05672073 622.25023712 958.05672073 622.72869873 959.35397339 C623.01481018 960.14474274 623.30092163 960.93551208 623.59570312 961.75024414 C623.84421021 962.4301088 624.09271729 963.10997345 624.34875488 963.81044006 C625.14266752 966.4796644 625.54218333 969.25309998 626 972 C543.5 972 461 972 376 972 C358.93078848 923.0682603 358.93078848 923.0682603 354.25924683 908.87121582 C352.74390636 904.26807442 351.21517649 899.66937163 349.6875 895.0703125 C349.37997299 894.14400024 349.07244598 893.21768799 348.75559998 892.26330566 C345.53445139 882.57458118 342.24337788 872.91008716 338.9375 863.25 C338.65508453 862.42424469 338.37266907 861.59848938 338.08169556 860.74771118 C335.06861833 851.9392335 332.04642656 843.13389948 329.0202179 834.32992554 C327.70389173 830.49855263 326.38986893 826.66639197 325.07620239 822.83410645 C324.1416171 820.11091877 323.20354947 817.38894704 322.26538086 814.66699219 C321.70017528 813.01894289 321.13514286 811.37083419 320.5703125 809.72265625 C320.30856735 808.96644485 320.0468222 808.21023346 319.77714539 807.43110657 C318 802.22770781 318 802.22770781 318 800 C138.315 800.495 138.315 800.495 -45 801 C-54.9 830.37 -64.8 859.74 -75 890 C-84.2863747 917.35028165 -93.63222715 944.67732919 -103 972 C-184.84 972 -266.68 972 -351 972 C-349.12876557 965.13880708 -347.26162315 958.57839548 -344.8046875 951.953125 C-344.34814034 950.70449928 -344.34814034 950.70449928 -343.88237 949.4306488 C-343.22662174 947.63878324 -342.56884724 945.8476581 -341.90921021 944.05722046 C-340.84681034 941.17348308 -339.78977601 938.28782781 -338.73413086 935.40161133 C-337.61958466 932.3544178 -336.50475443 929.30733229 -335.38835144 926.26081848 C-331.76982702 916.38498782 -328.18902719 906.49568205 -324.61578369 896.60339355 C-323.55406042 893.66413599 -322.49172314 890.72510103 -321.42919922 887.78613281 C-319.99965317 883.83193499 -318.57029836 879.87766814 -317.14111328 875.92333984 C-313.9494884 867.09314736 -310.75539881 858.26384639 -307.56149292 849.43447876 C-305.79089412 844.5396891 -304.02045516 839.64484162 -302.25 834.75 C-301.54166743 832.79166639 -300.8333341 830.83333306 -300.125 828.875 C-299.774375 827.905625 -299.42375 826.93625 -299.0625 825.9375 C-278.87500012 770.12500033 -278.87500012 770.12500033 -277.81243896 767.18733215 C-277.10430832 765.22955859 -276.39617843 763.27178474 -275.68804932 761.31401062 C-273.91412119 756.4096106 -272.14017964 751.50521543 -270.36621094 746.60083008 C-267.21563281 737.89057527 -264.06513312 729.18029215 -260.91516113 720.46981812 C-252.33255106 696.73674871 -243.7442863 673.00573343 -235.15161133 649.27630615 C-229.18158924 632.78938954 -223.21362956 616.30173004 -217.25 599.8125 C-216.9051355 598.85896637 -216.560271 597.90543274 -216.20495605 596.92300415 C-213.80316312 590.28205372 -211.40155743 583.64103559 -209 577 C-206.25013382 569.39578493 -203.5001759 561.79160306 -200.75 554.1875 C-200.40545776 553.2348526 -200.06091553 552.2822052 -199.70593262 551.3006897 C-193.19217518 533.29098663 -186.6722166 515.28353081 -180.15161133 497.27630615 C-172.11610655 475.08531672 -164.08670565 452.8921251 -156.06054688 430.69775391 C-152.18503319 419.98110605 -148.30861157 409.26478657 -144.43237305 398.54840088 C-143.36636836 395.6012796 -142.30036938 392.65415626 -141.234375 389.70703125 C-140.88294434 388.73544067 -140.53151367 387.7638501 -140.16943359 386.76281738 C-138.08449132 380.99855111 -135.99974215 375.23421504 -133.91516113 369.46981812 C-125.33255106 345.73674871 -116.7442863 322.00573343 -108.15161133 298.27630615 C-100.11610655 276.08531672 -92.08670565 253.8921251 -84.06054688 231.69775391 C-80.89628697 222.94787921 -77.73137495 214.19824037 -74.56652832 205.44857788 C-72.79432704 200.54906102 -71.02216548 195.6495298 -69.25 190.75 C-68.54166686 188.7916666 -67.83333352 186.83333326 -67.125 184.875 C-66.774375 183.905625 -66.42375 182.93625 -66.0625 181.9375 C-45.87500002 126.12500006 -45.87500002 126.12500006 -44.81254578 123.18763733 C-44.10405067 121.22884955 -43.39556475 119.27005846 -42.68708801 117.31126404 C-40.91880508 112.42235638 -39.1503637 107.53350616 -37.3815918 102.64477539 C-34.16403255 93.75123089 -30.94767602 84.85726022 -27.73721313 75.96115112 C-26.27888913 71.92048781 -24.81964542 67.88015688 -23.36035156 63.83984375 C-22.68916689 61.98079355 -22.01839297 60.12159498 -21.34814453 58.26220703 C-14.33364318 38.80344718 -7.15107419 19.41005851 0 0 Z " fill="#FEFEFE" transform="translate(1289,543)"/>
<path d="M0 0 C1.20229248 -0.00261841 2.40458496 -0.00523682 3.64331055 -0.00793457 C35.67743391 -0.01532008 67.98964681 1.86682312 99.4375 8.3125 C100.27087891 8.4775 101.10425781 8.6425 101.96289062 8.8125 C107.47218297 9.90497005 112.96007498 11.07068243 118.4375 12.3125 C120.28420288 12.71734619 120.28420288 12.71734619 122.16821289 13.13037109 C132.66318498 15.47362652 142.81831218 18.49085441 153 21.9375 C154.16680298 22.32950592 154.16680298 22.32950592 155.35717773 22.72943115 C188.98449399 34.05500001 220.98916828 48.89624298 249.4375 70.3125 C249.97391113 70.71146484 250.51032227 71.11042969 251.06298828 71.52148438 C270.37057618 85.90230846 288.78980833 102.11798066 303.4375 121.3125 C304.20707031 122.26511719 304.97664062 123.21773437 305.76953125 124.19921875 C328.76072643 153.0558842 343.71683187 186.91267007 353.4375 222.3125 C353.64068848 223.04275391 353.84387695 223.77300781 354.05322266 224.52539062 C356.54759854 233.66781105 358.14802306 242.95764467 359.625 252.3125 C359.79217529 253.32473633 359.95935059 254.33697266 360.1315918 255.37988281 C361.92525181 267.42632896 361.94208736 278.92718408 362.4375 291.3125 C277.9575 291.3125 193.4775 291.3125 106.4375 291.3125 C104.4575 278.9375 104.4575 278.9375 102.4375 266.3125 C93.75192841 239.45156564 78.88944994 218.45238513 53.57739258 205.08642578 C33.88004288 195.07664938 13.27511359 191.1247421 -8.68139648 191.12719727 C-10.86006345 191.12501496 -13.03821927 191.10681341 -15.21679688 191.08789062 C-41.05660881 190.98118588 -65.14123912 199.5114181 -83.94140625 217.6015625 C-90.77331033 224.93905341 -95.25019159 233.009705 -98.8125 242.3125 C-99.05887207 242.9526001 -99.30524414 243.5927002 -99.55908203 244.25219727 C-103.31503202 254.54017777 -103.96693935 264.53676263 -103.9375 275.4375 C-103.93762085 276.12370422 -103.9377417 276.80990845 -103.93786621 277.51690674 C-103.91160707 287.97751061 -103.24693943 297.45344828 -99.5625 307.3125 C-99.25054687 308.1684375 -98.93859375 309.024375 -98.6171875 309.90625 C-97.71221029 312.12686634 -96.69944315 314.20217394 -95.5625 316.3125 C-94.93408203 317.50552734 -94.93408203 317.50552734 -94.29296875 318.72265625 C-90.54947744 325.39493966 -85.91588572 330.87192558 -80.5625 336.3125 C-79.43714844 337.4571875 -79.43714844 337.4571875 -78.2890625 338.625 C-71.45941212 345.1596821 -63.78082618 349.78425199 -55.5625 354.3125 C-54.76779297 354.75432617 -53.97308594 355.19615234 -53.15429688 355.65136719 C-13.77359363 377.36666671 28.91978661 391.90013541 71.39624023 406.19824219 C127.52120946 425.09556375 183.73682859 445.05892742 236.4375 472.3125 C237.07187988 472.63669922 237.70625977 472.96089844 238.35986328 473.29492188 C247.11654768 477.77925339 255.37324864 482.64881831 263.4375 488.3125 C263.99824219 488.70195801 264.55898438 489.09141602 265.13671875 489.49267578 C288.22516311 505.54118332 310.20214103 525.0058317 327.4375 547.3125 C328.08460938 548.09238281 328.73171875 548.87226562 329.3984375 549.67578125 C347.73553189 571.81800393 359.45844079 597.24107747 366.78515625 624.88183594 C367.36082727 627.02681372 367.96896416 629.15801847 368.59375 631.2890625 C371.82478619 642.91589726 372.93446246 654.74385001 374.11206055 666.72558594 C374.36506077 669.21736883 374.36506077 669.21736883 374.94876099 671.20646667 C375.45941715 673.40694355 375.5710326 675.33938101 375.58276367 677.59594727 C375.59233345 678.85490562 375.59233345 678.85490562 375.60209656 680.13929749 C375.60376579 681.49540382 375.60376579 681.49540382 375.60546875 682.87890625 C375.60879715 683.82700668 375.61212555 684.77510712 375.61555481 685.75193787 C375.62061966 687.76683061 375.62296327 689.78173175 375.62280273 691.79663086 C375.62495492 694.8118374 375.64301836 697.82665676 375.66210938 700.84179688 C375.70918347 716.70421505 374.76297759 732.30734496 371.5625 747.875 C371.3874292 748.74809814 371.2123584 749.62119629 371.03198242 750.52075195 C370.67484909 752.28781624 370.31356702 754.05404809 369.94775391 755.81933594 C369.47729229 758.1180699 369.03755316 760.42037075 368.60546875 762.7265625 C364.70570922 782.70199744 357.2280983 802.00824821 348.4375 820.3125 C348.11426758 820.9945752 347.79103516 821.67665039 347.45800781 822.37939453 C338.09286779 842.05550713 326.30788847 859.98892505 312.625 876.9375 C312.1103418 877.5761499 311.59568359 878.2147998 311.06542969 878.87280273 C307.90287636 882.7235512 304.54858582 886.27362634 300.99291992 889.76318359 C299.21940111 891.52974306 297.59801958 893.38657511 296 895.3125 C293.08687721 898.68524883 289.9839362 901.59932989 286.5859375 904.4765625 C284.25254533 906.47055217 282.00611914 908.54411341 279.75 910.625 C222.25873144 962.34088999 143.5997705 988.36011127 67.54833984 994.01879883 C64.48443137 994.26201046 64.48443137 994.26201046 61.68023682 994.82078552 C58.22207749 995.34516573 54.94016069 995.45390518 51.44287109 995.47363281 C50.76830368 995.47859772 50.09373627 995.48356262 49.39872742 995.48867798 C47.16945333 995.50324809 44.9402514 995.5101078 42.7109375 995.515625 C41.93393116 995.51845238 41.15692482 995.52127975 40.35637283 995.52419281 C36.21056027 995.53919565 32.06478233 995.54840706 27.91894531 995.55273438 C24.568244 995.55704457 21.21781109 995.57063594 17.8671875 995.59375 C-0.13297941 995.71525371 -18.0141339 995.47663236 -35.9609375 993.984375 C-37.04378965 993.89665707 -37.04378965 993.89665707 -38.14851761 993.80716705 C-47.43247323 993.03514355 -56.52807641 991.73081019 -65.68238831 990.00648499 C-69.51825825 989.32041295 -73.32439907 988.79568579 -77.19140625 988.32421875 C-84.73676504 987.35528195 -92.09034117 985.83244312 -99.5 984.125 C-100.50220581 983.89532532 -100.50220581 983.89532532 -101.5246582 983.66101074 C-147.08947435 973.18234311 -191.73152093 956.7651827 -230.5625 930.3125 C-231.2337793 929.85762207 -231.90505859 929.40274414 -232.59667969 928.93408203 C-242.41274883 922.24780644 -251.64912816 915.15676448 -260.5625 907.3125 C-261.33207031 906.65378906 -262.10164063 905.99507812 -262.89453125 905.31640625 C-266.76983668 901.98942319 -270.40604118 898.50642073 -273.98046875 894.859375 C-275.64793509 893.16985778 -275.64793509 893.16985778 -278.0625 891.375 C-280.93774012 889.0029269 -283.21994576 886.38305186 -285.6328125 883.55078125 C-287.59796268 881.27136616 -289.6378758 879.07853371 -291.6875 876.875 C-312.59417436 853.65327652 -327.77350174 827.10710178 -339.5625 798.3125 C-340.03478027 797.16273682 -340.03478027 797.16273682 -340.51660156 795.98974609 C-343.9631942 787.49760605 -346.62596322 778.94392413 -348.69921875 770.01953125 C-349.42413903 766.90663828 -350.22780965 763.83433706 -351.0625 760.75 C-354.26319791 747.87724775 -356.33496439 734.61323304 -357.8125 721.4375 C-357.93250366 720.42610962 -357.93250366 720.42610962 -358.05493164 719.39428711 C-358.87441645 711.32763186 -358.5625 703.51724496 -358.5625 695.3125 C-275.4025 695.3125 -192.2425 695.3125 -106.5625 695.3125 C-103.5625 711.3125 -103.5625 711.3125 -102.7109375 716.07421875 C-97.45905727 743.71569363 -82.62523812 768.90483392 -59.5625 785.3125 C-55.01078189 788.22710252 -50.37239392 790.85094255 -45.5625 793.3125 C-44.49644531 793.8590625 -43.43039062 794.405625 -42.33203125 794.96875 C-31.90970502 799.84993504 -20.81678053 802.14523065 -9.5625 804.3125 C-8.14759277 804.58513672 -8.14759277 804.58513672 -6.70410156 804.86328125 C-3.23178051 805.3597897 0.10176279 805.45921465 3.609375 805.48046875 C4.28454666 805.48483948 4.95971832 805.48921021 5.65534973 805.49371338 C39.17637238 805.65042218 73.0116135 802.50727374 99.4375 779.3125 C100.25605469 778.6834375 101.07460938 778.054375 101.91796875 777.40625 C111.4054409 769.5220871 117.56829698 758.30812168 121.6875 746.875 C121.93387207 746.1955835 122.18024414 745.51616699 122.43408203 744.81616211 C125.71235104 735.24755869 126.76870854 725.82662596 126.6875 715.75 C126.69523437 714.78642578 126.70296875 713.82285156 126.7109375 712.83007812 C126.64918837 689.93658951 117.19070678 670.38627793 101.5 654.125 C88.87199098 641.89472355 73.93717967 632.44218339 58.4375 624.3125 C57.71224121 623.93013184 56.98698242 623.54776367 56.23974609 623.15380859 C20.08438434 604.37677503 -20.48906155 593.45408058 -59.27026367 581.49633789 C-220.58174558 531.75488971 -220.58174558 531.75488971 -285.5625 470.3125 C-286.3771875 469.52746094 -287.191875 468.74242187 -288.03125 467.93359375 C-292.44996627 463.59135526 -296.58265145 459.0588379 -300.5625 454.3125 C-301.03880859 453.74466797 -301.51511719 453.17683594 -302.00585938 452.59179688 C-309.05174005 444.15562062 -315.80270807 435.69718028 -321.5625 426.3125 C-321.98241211 425.63380859 -322.40232422 424.95511719 -322.83496094 424.25585938 C-337.51722252 400.35159531 -347.23176122 374.06991973 -351.5625 346.3125 C-351.82475981 344.87023725 -352.0918787 343.42885152 -352.36328125 341.98828125 C-352.50080811 341.249729 -352.63833496 340.51117676 -352.7800293 339.75024414 C-352.91449463 339.02828857 -353.04895996 338.30633301 -353.1875 337.5625 C-355.23366482 326.51761031 -355.72794533 315.47118427 -355.80078125 304.25390625 C-355.81288887 302.41819313 -355.81288887 302.41819313 -355.82524109 300.5453949 C-355.83899632 297.96118547 -355.84975625 295.37695854 -355.85766602 292.79272461 C-355.86908759 290.21128821 -355.88937937 287.62987353 -355.91918945 285.04858398 C-356.20087513 260.55137212 -354.0837857 236.55231749 -347.8125 212.8125 C-347.64231354 212.15347687 -347.47212708 211.49445374 -347.29678345 210.81546021 C-344.22775446 198.95697255 -340.51323984 187.52018698 -335.5625 176.3125 C-335.15128906 175.38147461 -334.74007812 174.45044922 -334.31640625 173.49121094 C-318.12423214 137.37113116 -293.99234995 104.67557551 -262.5625 80.3125 C-261.42554688 79.37470703 -261.42554688 79.37470703 -260.265625 78.41796875 C-206.17056774 33.85308097 -136.48131038 11.03103135 -67.625 3.125 C-66.89825073 3.03996216 -66.17150146 2.95492432 -65.42272949 2.86730957 C-43.69854116 0.35930186 -21.8490487 0.04621011 0 0 Z " fill="#F48A3E" transform="translate(480.5625,528.6875)"/>
<path d="M0 0 C2.03936599 3.05904898 3.00933182 5.63674695 4.17626953 9.11230469 C4.38530065 9.73079001 4.59433176 10.34927534 4.80969715 10.98650265 C5.50491433 13.04691225 6.19382992 15.10937307 6.8828125 17.171875 C7.37358303 18.63016661 7.86476682 20.0883192 8.3563385 21.54634094 C9.40392023 24.65612408 10.44880431 27.7667952 11.49154663 30.87820435 C13.13489033 35.78153785 14.7842273 40.68284102 16.43481445 45.58374023 C18.09025141 50.4996553 19.74552272 55.41562462 21.39881897 60.33226013 C25.63177341 72.91926306 29.89798101 85.49465743 34.1875 98.0625 C40.29504766 115.97098361 46.370597 133.89021807 52.4375 151.8125 C58.7790995 170.54595144 65.12876167 189.27660196 71.5 208 C76.06222032 221.40716868 80.61796857 234.81649894 85.16015625 248.23046875 C85.38117949 248.88318441 85.60220272 249.53590008 85.82992363 250.208395 C87.85502102 256.18905059 89.87973515 262.16983586 91.90377808 268.15084839 C96.50542048 281.74850039 101.11208797 295.34434929 105.75 308.9296875 C106.1204393 310.01528458 106.4908786 311.10088165 106.87254333 312.21937561 C108.58833027 317.24698526 110.30607333 322.27390925 112.02758789 327.29956055 C112.63434854 329.0759848 113.24104202 330.85243199 113.84765625 332.62890625 C114.11026245 333.39286713 114.37286865 334.156828 114.64343262 334.94393921 C116.91042371 341.59346102 118.93047891 348.27405646 121 355 C41.8 355 -37.4 355 -119 355 C-105.1982833 312.44470685 -105.1982833 312.44470685 -100.81103516 299.30371094 C-100.28999471 297.73922169 -99.76908012 296.17469053 -99.24827576 294.61012268 C-97.87961661 290.49973326 -96.50916739 286.38994315 -95.13821459 282.28031826 C-93.67181751 277.88373983 -92.20693955 273.48665519 -90.74179077 269.08966064 C-88.28401181 261.71452633 -85.82499907 254.33980428 -83.36523438 246.96533203 C-80.56416341 238.56754837 -77.76524682 230.16904902 -74.96745646 221.77017188 C-72.5214342 214.42749307 -70.07418779 207.08522303 -67.62600744 199.74326348 C-66.18313287 195.41616019 -64.7406071 191.08894175 -63.29921341 186.76134491 C-56.90085774 167.55313007 -50.43565407 148.36961314 -43.87920845 129.21474981 C-39.08635647 115.21094767 -34.35660122 101.18806799 -29.69809532 87.1388855 C-28.51816869 83.58098925 -27.33574334 80.02393076 -26.15278625 76.46704102 C-23.01881104 67.04275034 -19.88796506 57.61742155 -16.75958902 48.19127083 C-14.46921981 41.29015793 -12.17616666 34.38994444 -9.88047218 27.49060059 C-9.09585623 25.13054869 -8.31237869 22.77011799 -7.53006554 20.40930176 C-6.45200877 17.156083 -5.37035382 13.90408222 -4.2878418 10.65234375 C-3.80726067 9.19745796 -3.80726067 9.19745796 -3.31697083 7.71318054 C-3.0245047 6.83708633 -2.73203857 5.96099213 -2.43070984 5.05834961 C-2.17696437 4.29397079 -1.9232189 3.52959198 -1.66178417 2.74205017 C-1 1 -1 1 0 0 Z " fill="#000000" transform="translate(1425,805)"/>
<path d="M0 0 C19.8 0 39.6 0 60 0 C60 119.46 60 238.92 60 362 C40.2 362 20.4 362 0 362 C0 242.54 0 123.08 0 0 Z " fill="#FDFDFD" transform="translate(1770,403)"/>
<path d="M0 0 C10.56553062 6.23095396 19.21136245 15.08450819 22.67700195 27.15283203 C24.79786291 36.9471883 24.19040894 48.55623353 19.1328125 57.2578125 C18.47925781 58.42183594 18.47925781 58.42183594 17.8125 59.609375 C12.32536251 68.574698 4.10267291 75.90815087 -6.2421875 78.5078125 C-16.59515264 80.4424575 -28.06463875 79.46966224 -37.2421875 73.9453125 C-38.46827769 73.07394022 -39.6775831 72.17837112 -40.8671875 71.2578125 C-41.45886719 70.83886719 -42.05054688 70.41992188 -42.66015625 69.98828125 C-49.98177031 64.37989256 -54.88919401 56.2058783 -56.8671875 47.2578125 C-57.15091013 44.27200247 -57.19233626 41.31806811 -57.1796875 38.3203125 C-57.19580078 37.56041016 -57.21191406 36.80050781 -57.22851562 36.01757812 C-57.23720389 25.84362162 -52.60040805 16.5446261 -45.86328125 9.01953125 C-34.04390471 -2.20781928 -15.23222789 -7.38375792 0 0 Z " fill="#FDFDFD" transform="translate(1816.8671875,265.7421875)"/>
</svg>
