<?xml version="1.0" encoding="UTF-8"?>
<svg version="1.1" xmlns="http://www.w3.org/2000/svg" width="2000" height="2000">
<path d="M0 0 C660 0 1320 0 2000 0 C2000 660 2000 1320 2000 2000 C1340 2000 680 2000 0 2000 C0 1340 0 680 0 0 Z " fill="#FEFEFE" transform="translate(0,0)"/>
<path d="M0 0 C482.13 0 964.26 0 1461 0 C1461 163.68 1461 327.36 1461 496 C1388.73 496 1316.46 496 1242 496 C1240.515 500.95 1240.515 500.95 1239 506 C1238.30827016 508.05258854 1237.59918433 510.09949002 1236.86547852 512.13745117 C1236.46898102 513.24270142 1236.07248352 514.34795166 1235.66397095 515.48669434 C1235.02786392 517.24705017 1235.02786392 517.24705017 1234.37890625 519.04296875 C1233.9225108 520.31173328 1233.46632966 521.58057492 1233.01034546 522.8494873 C1231.78609353 526.25403707 1230.55843056 529.65734728 1229.32999802 533.06039047 C1228.29409394 535.93138346 1227.26018863 538.80309467 1226.22622395 541.67478657 C1218.6939703 562.59287679 1211.10891943 583.49162534 1203.49902344 604.3815918 C1197.23673222 621.57572284 1191.01620834 638.78467242 1184.8125 656 C1184.58030258 656.64432102 1184.34810516 657.28864204 1184.10887146 657.95248795 C1182.9483257 661.17286931 1181.78781844 664.39326455 1180.62731934 667.61366272 C1180.40080185 668.24224749 1180.17428436 668.87083225 1179.94090271 669.51846504 C1179.48631167 670.77996989 1179.03173196 672.04147882 1178.5771637 673.30299187 C1174.12307856 685.66363598 1169.65804284 698.0202999 1165.1875 710.375 C1164.67245407 711.79841202 1164.67245407 711.79841202 1164.14700317 713.25057983 C1162.77847172 717.03260558 1161.40985856 720.81460173 1160.04109192 724.59654236 C1157.66315984 731.16688149 1155.28633241 737.73761939 1152.91015625 744.30859375 C1144.66261701 767.11555082 1136.40896421 789.92028801 1128.15161133 812.72369385 C1120.11610655 834.91468328 1112.08670565 857.1078749 1104.06054688 879.30224609 C1100.89628697 888.05212079 1097.73137495 896.80175963 1094.56652832 905.55142212 C1092.79432704 910.45093898 1091.02216548 915.3504702 1089.25 920.25 C1088.54166686 922.2083334 1087.83333352 924.16666674 1087.125 926.125 C1086.5990625 927.5790625 1086.5990625 927.5790625 1086.0625 929.0625 C1048.87499973 1031.87500075 1048.87499973 1031.87500075 1047.81243896 1034.81266785 C1047.10430832 1036.77044141 1046.39617843 1038.72821526 1045.68804932 1040.68598938 C1043.91412119 1045.5903894 1042.14017964 1050.49478457 1040.36621094 1055.39916992 C1037.21560709 1064.10949583 1034.06507994 1072.81984943 1030.91508484 1081.53039551 C1029.19345781 1086.29112157 1027.47173315 1091.05181232 1025.75 1095.8125 C1025.23123795 1097.24695465 1025.23123795 1097.24695465 1024.70199585 1098.71038818 C1020.48270298 1110.3770187 1016.260735 1122.04267589 1012.03515625 1133.70703125 C1010.73448658 1137.29767114 1009.43383817 1140.88831874 1008.13320923 1144.47897339 C1007.25270091 1146.9097558 1006.37214671 1149.34052158 1005.49154663 1151.77127075 C1000.64633562 1165.1467279 995.80758585 1178.52444789 990.98766518 1191.90903854 C990.26404303 1193.91845544 989.54026531 1195.92781625 988.81645203 1197.93716431 C986.53766346 1204.26360349 984.26028837 1210.5905436 981.9855957 1216.91845703 C974.76012123 1236.98559859 967.37405057 1256.98471989 960 1277 C1025.67 1277 1091.34 1277 1159 1277 C1159.66 1274.03 1160.32 1271.06 1161 1268 C1161.93282826 1265.01819654 1162.89572114 1262.07346395 1163.921875 1259.125 C1164.21448212 1258.27088531 1164.50708923 1257.41677063 1164.80856323 1256.53677368 C1165.44785139 1254.67233371 1166.08932152 1252.80864078 1166.73272705 1250.94561768 C1168.14125833 1246.86707156 1169.53938426 1242.78498202 1170.9380188 1238.70303345 C1171.70417778 1236.46700064 1172.47085505 1234.23114535 1173.23800659 1231.99545288 C1176.43054932 1222.68488458 1179.59138522 1213.36382385 1182.7421875 1204.0390625 C1183.1077047 1202.95753025 1183.1077047 1202.95753025 1183.48060608 1201.85414886 C1185.67379319 1195.36443959 1187.86586176 1188.87435291 1190.05651855 1182.38378906 C1191.20754202 1178.97368955 1192.35970299 1175.56397603 1193.51254654 1172.15449142 C1194.13412083 1170.31516419 1194.75445453 1168.47541785 1195.37472534 1166.63565063 C1198.50084219 1157.39184204 1201.75139933 1148.20436856 1205 1139 C1289.48 1139 1373.96 1139 1461 1139 C1461 1247.9 1461 1356.8 1461 1469 C978.87 1469 496.74 1469 0 1469 C0 984.23 0 499.46 0 0 Z " fill="#FE9D5F" transform="translate(11,220)"/>
<path d="M0 0 C1.07765625 0.76054688 2.1553125 1.52109375 3.265625 2.3046875 C19.2549455 13.97603642 33.79788872 27.40120172 46 43 C47.05960938 44.31677734 47.05960938 44.31677734 48.140625 45.66015625 C77.08501422 82.67357484 93 131.17589466 93 178 C25.02 178 -42.96 178 -113 178 C-113.99 171.73 -114.98 165.46 -116 159 C-120.29424619 144.5222557 -127.2021742 132.60214857 -138 122 C-139.12728516 120.87851562 -139.12728516 120.87851562 -140.27734375 119.734375 C-151.70947693 109.40391658 -167.75931557 102.12420906 -183 100 C-184.16015625 99.82082031 -185.3203125 99.64164063 -186.515625 99.45703125 C-211.42752785 96.44783576 -238.1407051 98.06146429 -258.54296875 113.953125 C-259.75919922 114.96632813 -259.75919922 114.96632813 -261 116 C-261.71800781 116.59296875 -262.43601562 117.1859375 -263.17578125 117.796875 C-274.77836742 128.34058438 -280.35237644 143.41064076 -281.14282227 158.77636719 C-281.88020943 176.84524123 -281.88020943 176.84524123 -277 194 C-276.50242187 195.09183594 -276.00484375 196.18367187 -275.4921875 197.30859375 C-253.18136311 242.18967073 -180.76280089 257.68695829 -136.70117188 272.5144043 C-100.87910661 284.57084604 -65.41102172 297.30654142 -31 313 C-29.31704834 313.76521973 -29.31704834 313.76521973 -27.60009766 314.54589844 C-9.66053212 322.7639652 7.3545473 331.89549245 23 344 C23.81339844 344.62132812 24.62679688 345.24265625 25.46484375 345.8828125 C40.70064554 357.77299589 55.28213762 371.6150368 67 387 C67.79921875 388.04414062 68.5984375 389.08828125 69.421875 390.1640625 C86.02616629 412.35923136 97.0954845 438.4978172 101 466 C101.16491943 467.08869385 101.32983887 468.1773877 101.49975586 469.29907227 C103.03576017 480.26718076 103.35670938 491.05940433 103.3125 502.125 C103.31134186 503.02530945 103.31018372 503.9256189 103.30899048 504.85321045 C103.27442011 518.45581929 102.5815587 531.61690149 100 545 C99.79503906 546.25296875 99.59007812 547.5059375 99.37890625 548.796875 C93.6263597 581.52564918 79.96877568 613.44541439 60 640 C59.52933105 640.63147949 59.05866211 641.26295898 58.57373047 641.91357422 C51.93763526 650.71337106 44.5805813 658.68797425 36.8125 666.5 C35.99338135 667.32467773 35.1742627 668.14935547 34.33032227 668.99902344 C19.84832289 683.31119281 2.73354647 695.06489075 -15 705 C-15.75700195 705.42635742 -16.51400391 705.85271484 -17.29394531 706.29199219 C-46.26437886 722.44611992 -78.42678994 733.64946189 -111.1875 739 C-112.06857422 739.15210938 -112.94964844 739.30421875 -113.85742188 739.4609375 C-116.52580438 739.90355159 -119.19688102 740.31210959 -121.87438965 740.69549561 C-123.42152985 740.91713124 -124.96790456 741.1441305 -126.51379395 741.37432861 C-143.64752552 743.878385 -160.52830461 744.49342216 -177.83037567 744.38692474 C-179.90964243 744.37479796 -181.98888478 744.36738325 -184.06817627 744.36090088 C-243.97807408 744.14614295 -303.45201426 735.21954297 -357.12646484 706.98388672 C-359.04269646 705.97757796 -360.96787873 704.99009436 -362.89453125 704.00390625 C-391.81105918 689.06831552 -419.13003146 666.84589893 -439 641 C-439.74765625 640.04609375 -440.4953125 639.0921875 -441.265625 638.109375 C-456.12516932 618.80207592 -467.14420365 597.00626074 -475 574 C-475.24975586 573.27925293 -475.49951172 572.55850586 -475.75683594 571.81591797 C-483.17563148 550.00712858 -486 525.95569458 -486 503 C-419.01 503 -352.02 503 -283 503 C-282.01 509.6 -281.02 516.2 -280 523 C-279.05966953 526.61759262 -278.17412932 529.86545651 -276.875 533.3125 C-276.5749707 534.13169922 -276.27494141 534.95089844 -275.96582031 535.79492188 C-267.52025077 557.8859835 -252.3261316 573.79949363 -230.73852539 583.67553711 C-203.27196582 595.54580929 -167.56633446 594.30986634 -139.9453125 583.6640625 C-121.91732947 576.30517015 -108.96073217 564.26806414 -101.25390625 546.35546875 C-95.42172788 530.74848677 -94.42579983 511.82588134 -100 496 C-100.38285156 494.75283203 -100.38285156 494.75283203 -100.7734375 493.48046875 C-108.16476879 471.95067348 -131.4643217 455.77036379 -151 446 C-151.65049316 445.6714502 -152.30098633 445.34290039 -152.97119141 445.00439453 C-181.03374496 431.08183626 -211.72150126 422.34781615 -241.59069824 413.26316833 C-352.1200974 379.61316858 -352.1200974 379.61316858 -396 349 C-397.03205566 348.28577881 -397.03205566 348.28577881 -398.08496094 347.55712891 C-408.93100367 339.96797879 -418.56549187 331.26327366 -428 322 C-428.61480225 321.39986084 -429.22960449 320.79972168 -429.86303711 320.18139648 C-435.00811357 315.10929983 -439.48321549 309.63425888 -444 304 C-444.68320312 303.18402344 -445.36640625 302.36804687 -446.0703125 301.52734375 C-468.61619134 274.33966633 -478.39476004 240.37642783 -483 206 C-483.10675049 205.22857666 -483.21350098 204.45715332 -483.32348633 203.66235352 C-484.25204425 195.9287807 -484.18608494 188.14876307 -484.18530273 180.37133789 C-484.18747357 177.96677512 -484.20564154 175.56268424 -484.22460938 173.15820312 C-484.26293689 162.62798902 -483.48236449 152.42216265 -482 142 C-481.81135376 140.64249634 -481.81135376 140.64249634 -481.61889648 139.25756836 C-481.31335595 137.16627796 -480.98094058 135.08324616 -480.625 133 C-480.49907471 132.26273682 -480.37314941 131.52547363 -480.2434082 130.76586914 C-474.16667172 96.23544823 -460.05823353 63.68908012 -437 37 C-436.31808594 36.20851563 -435.63617188 35.41703125 -434.93359375 34.6015625 C-424.85409626 23.16971741 -414.23220782 13.08341721 -402 4 C-401.38092773 3.53126465 -400.76185547 3.0625293 -400.12402344 2.57958984 C-351.71202579 -33.9332874 -293.44230599 -48.79741456 -234 -54 C-232.38037354 -54.14574463 -232.38037354 -54.14574463 -230.72802734 -54.29443359 C-151.44501993 -60.75538972 -65.87742188 -46.50749336 0 0 Z " fill="#FEFEFE" transform="translate(802,760)"/>
<path d="M0 0 C62.7 0 125.4 0 190 0 C190 257.73 190 515.46 190 781 C127.3 781 64.6 781 0 781 C0 523.27 0 265.54 0 0 Z " fill="#000000" transform="translate(1667,720)"/>
<path d="M0 0 C0.66 0 1.32 0 2 0 C19.14769768 50.16082951 36.18074459 100.36052624 53.20825195 150.56225586 C59.13713101 168.04208222 65.06722226 185.52149645 71 203 C71.38387878 204.13101135 71.76775757 205.26202271 72.16326904 206.42730713 C74.79512226 214.18112073 77.42836481 221.93446136 80.0625 229.6875 C80.41539093 230.7265448 80.76828186 231.7655896 81.13186646 232.83612061 C84.49206977 242.72814822 87.85726647 252.61811879 91.28125 262.48828125 C91.52540146 263.19264816 91.76955292 263.89701508 92.02110291 264.62272644 C93.112921 267.77061048 94.20865987 270.91698298 95.31079102 274.0612793 C95.67358154 275.10324463 96.03637207 276.14520996 96.41015625 277.21875 C96.72090088 278.10498047 97.03164551 278.99121094 97.35180664 279.90429688 C98 282 98 282 98 284 C34.64 284 -28.72 284 -94 284 C-91.74999585 273.87498134 -91.74999585 273.87498134 -90.60609055 270.44633484 C-90.21596098 269.26606138 -90.21596098 269.26606138 -89.81795001 268.06194401 C-89.5376133 267.22899028 -89.25727659 266.39603655 -88.96844482 265.5378418 C-88.51517346 264.17312445 -88.51517346 264.17312445 -88.0527451 262.78083706 C-87.0456116 259.75219253 -86.0320932 256.72572527 -85.01855469 253.69921875 C-84.29183392 251.51826488 -83.56550551 249.33718025 -82.83953857 247.15597534 C-80.86766318 241.2352188 -78.89019259 235.31634473 -76.91164303 229.3978157 C-75.03960203 223.79526509 -73.17156849 218.19137977 -71.30342212 212.58752954 C-67.58840984 201.44418039 -63.86916899 190.30224728 -60.14746094 179.16113281 C-56.56781678 168.4452758 -52.99079925 157.72854736 -49.41699219 147.01074219 C-49.19842162 146.35525324 -48.97985104 145.69976429 -48.75465712 145.02441204 C-48.31408678 143.70314377 -47.87351666 142.38187543 -47.43294676 141.06060702 C-47.21540312 140.40819566 -46.99785947 139.7557843 -46.7737236 139.08360291 C-46.55659747 138.43244049 -46.33947133 137.78127807 -46.11576562 137.11038345 C-42.46623818 126.1657817 -38.8140976 115.22205177 -35.16185856 104.27835464 C-33.9390002 100.61381902 -32.71646694 96.94917506 -31.49398041 93.28451538 C-22.39461045 66.01071276 -13.24447582 38.75607562 -3.90370989 11.56386375 C-2.58273945 7.71565896 -1.2805293 3.86185159 0 0 Z " fill="#FE9D5F" transform="translate(1361,928)"/>
</svg>
