<?xml version="1.0" encoding="UTF-8"?>
<svg version="1.1" xmlns="http://www.w3.org/2000/svg" width="2000" height="2000">
<path d="M0 0 C2.41266925 -0.00239439 4.82533777 -0.00566249 7.2380048 -0.0097166 C12.46747362 -0.01650998 17.69690533 -0.01719236 22.92637473 -0.01232711 C30.75519965 -0.00507973 38.58398979 -0.009475 46.41281382 -0.01600846 C59.76065981 -0.02680899 73.10849166 -0.02817448 86.45634079 -0.02431011 C99.97409808 -0.02042788 113.49184484 -0.02089831 127.00960159 -0.02661991 C127.86493881 -0.02697874 128.72027602 -0.02733756 129.60153254 -0.02770726 C133.08548124 -0.02918225 136.56942993 -0.03068666 140.0533786 -0.03222873 C175.38286873 -0.0478477 210.71235164 -0.05054441 246.04184461 -0.04807267 C250.92034038 -0.0477342 255.79883615 -0.04741211 260.67733192 -0.04710698 C261.64638192 -0.04704594 262.61543192 -0.04698489 263.61384707 -0.046922 C285.10745181 -0.04564908 306.60105556 -0.04825337 328.09466001 -0.05163305 C333.00524422 -0.0524038 337.91582844 -0.05314853 342.82641265 -0.05389806 C344.79729937 -0.05419976 346.76818608 -0.05450164 348.7390728 -0.05480371 C350.20449541 -0.05502822 350.20449541 -0.05502822 351.69952251 -0.05525728 C353.67565615 -0.05556081 355.65178978 -0.0558655 357.62792341 -0.05617132 C413.68862506 -0.06484255 469.74932584 -0.0694896 525.81002808 -0.06522369 C527.36660676 -0.06510661 527.36660676 -0.06510661 528.95463147 -0.06498716 C540.52578469 -0.06411439 552.0969379 -0.06318513 563.66809112 -0.06223653 C564.71275614 -0.06215102 565.75742115 -0.06206551 566.83374269 -0.06197741 C575.51298768 -0.06126669 575.51298768 -0.06126669 579.50783373 -0.06093518 C646.31774572 -0.05540026 713.1276439 -0.06293983 779.93755341 -0.08170605 C796.77066546 -0.08642845 813.60377752 -0.09110905 830.43688965 -0.09554291 C831.4734412 -0.09581623 832.50999275 -0.09608955 833.57795496 -0.09637116 C865.53770302 -0.10474567 897.49744994 -0.10942242 929.4571991 -0.11025047 C930.46096044 -0.11027684 931.46472179 -0.11030321 932.49890014 -0.11033037 C954.53642737 -0.11087122 976.57395451 -0.11049856 998.61148171 -0.10929066 C1006.49735127 -0.10886505 1014.38322083 -0.10849992 1022.26909039 -0.10816122 C1024.23080705 -0.10807591 1026.19252371 -0.10798698 1028.15424036 -0.1078944 C1059.37799909 -0.10644722 1090.6017484 -0.11356156 1121.82550486 -0.12489836 C1154.15907044 -0.13656207 1186.49261926 -0.13709713 1218.82618493 -0.12505493 C1222.30334197 -0.12380318 1225.78049903 -0.12259968 1229.2576561 -0.12143421 C1230.11097602 -0.12114392 1230.96429593 -0.12085362 1231.84347403 -0.12055453 C1245.31738469 -0.11624079 1258.79127141 -0.12193957 1272.26517831 -0.1318744 C1285.53636964 -0.14144663 1298.80752428 -0.14018979 1312.07871352 -0.12766818 C1319.84375649 -0.12065759 1327.60869354 -0.12166032 1335.37372879 -0.13501656 C1341.16390456 -0.14404093 1346.95397962 -0.13713462 1352.74414448 -0.12442699 C1355.05319505 -0.12172644 1357.36225866 -0.12390669 1359.67129685 -0.13193413 C1381.16580237 -0.20148494 1402.9133494 1.12479588 1423.90923309 6.00447559 C1425.05359833 6.26124073 1426.19796356 6.51800587 1427.37700653 6.78255177 C1467.6522293 16.03850392 1505.64945337 31.63657301 1539.65923309 55.25447559 C1540.20644012 55.63039845 1540.75364716 56.0063213 1541.31743622 56.39363575 C1553.09571234 64.50364944 1563.821598 73.59048173 1574.39360809 83.20760059 C1576.47684436 85.08969681 1578.59142242 86.92609872 1580.72173309 88.75447559 C1587.93529575 95.05179944 1594.48108666 101.94949742 1600.65923309 109.25447559 C1601.40817841 110.12588184 1602.15712372 110.99728809 1602.92876434 111.89510059 C1648.00847392 164.99686873 1678.95591481 236.19996536 1678.78688359 306.6188789 C1678.78935976 308.10175283 1678.78935976 308.10175283 1678.79188595 309.6145838 C1678.79619024 312.91794832 1678.79341615 316.2212678 1678.79066086 319.52463341 C1678.79231147 321.93082861 1678.79439819 324.33702355 1678.79688096 326.74321803 C1678.80128121 331.98645975 1678.80258274 337.22969283 1678.80115262 342.4729358 C1678.79902738 350.32249592 1678.80265062 358.17204631 1678.80736739 366.02160493 C1678.81523355 379.40120391 1678.81832907 392.78080023 1678.81881332 406.16040134 C1678.81931588 419.71902376 1678.82196446 433.27764318 1678.82722092 446.83626461 C1678.82755105 447.69276444 1678.82788118 448.54926426 1678.82822132 449.43171863 C1678.82957134 452.92016115 1678.830934 456.40860367 1678.83231343 459.89704618 C1678.84861267 501.18995207 1678.85500175 542.48285739 1678.8597613 583.77576595 C1678.86214502 604.34062321 1678.86584861 624.90548014 1678.86979839 645.47033715 C1678.88246302 711.44714621 1678.89324656 777.42395526 1678.89663885 843.40076551 C1678.89680109 846.55389462 1678.89696665 849.70702374 1678.89713324 852.86015285 C1678.89746703 859.18372864 1678.89779751 865.50730443 1678.89812779 871.83088022 C1678.89851469 879.23413955 1678.8989043 886.63739888 1678.89929886 894.04065821 C1678.89941128 896.15952558 1678.8995227 898.27839295 1678.89963311 900.39726033 C1678.90318184 968.434605 1678.91825729 1036.47193911 1678.94157086 1104.50927975 C1678.95831706 1153.40049493 1678.97378948 1202.2917081 1678.97830582 1251.18292618 C1678.97844605 1252.69178271 1678.97844605 1252.69178271 1678.97858911 1254.2311212 C1678.98060836 1276.31557957 1678.98176423 1298.4000379 1678.98211769 1320.48449635 C1678.98225386 1328.38729269 1678.98246285 1336.29008902 1678.98271095 1344.19288536 C1678.98277251 1346.15886178 1678.98283083 1348.1248382 1678.98288589 1350.09081463 C1678.98380496 1381.39211597 1678.99376417 1412.69340626 1679.00834338 1443.99470397 C1679.02297426 1475.53322738 1679.027992 1507.07173726 1679.01992384 1538.61026346 C1679.01880855 1542.97406584 1679.01779787 1547.33786823 1679.01684952 1551.70167065 C1679.01665955 1552.55704923 1679.01646958 1553.41242782 1679.01627386 1554.29372696 C1679.0135464 1567.80609279 1679.02086225 1581.3184335 1679.03242289 1594.83079387 C1679.04359594 1608.13665457 1679.04396278 1621.44247997 1679.0330527 1634.74834125 C1679.02698528 1642.53615091 1679.02897294 1650.32385362 1679.04330467 1658.11165306 C1679.05305232 1663.9152098 1679.04689653 1669.71866766 1679.03489435 1675.5222162 C1679.03248001 1677.83933302 1679.0349738 1680.15646221 1679.04329082 1682.47356537 C1679.30303221 1760.00012505 1650.05207602 1836.5948237 1597.76860809 1893.92635059 C1595.90247742 1895.98600593 1594.08853521 1898.07836454 1592.28423309 1900.19197559 C1585.36158993 1908.12651323 1577.75358502 1915.52463798 1569.65923309 1922.25447559 C1569.12765594 1922.69984669 1568.5960788 1923.14521778 1568.04839325 1923.60408497 C1553.69745873 1935.59357147 1538.86646157 1946.89772757 1522.58843231 1956.1553545 C1520.57366208 1957.3032279 1518.57196755 1958.47220049 1516.56938934 1959.64119434 C1474.18529022 1984.09820673 1422.62521653 2000.49452808 1373.41195756 2000.38327676 C1372.42388533 2000.38505177 1371.4358131 2000.38682678 1370.41779929 2000.38865558 C1367.11013722 2000.39338285 1363.80251899 2000.39102564 1360.49485493 2000.38869667 C1358.08792743 2000.39065048 1355.68100025 2000.39303966 1353.27407357 2000.39582464 C1348.02609374 2000.4008852 1342.77812214 2000.40284326 1337.53014032 2000.4020739 C1329.6733963 2000.40093643 1321.81666268 2000.40552608 1313.959921 2000.41120474 C1300.56829873 2000.42070801 1287.17667856 2000.42542226 1273.78505325 2000.42751408 C1260.21310584 2000.42964335 1246.64116165 2000.43390518 1233.06921577 2000.4407568 C1232.21202716 2000.44118741 1231.35483855 2000.44161803 1230.47167453 2000.44206169 C1226.98044201 2000.44382007 1223.48920951 2000.44558971 1219.99797701 2000.44737471 C1177.68047584 2000.46896853 1135.36297404 2000.47985306 1093.04546862 2000.48885095 C1079.31983757 2000.49178561 1065.59420668 2000.4951556 1051.86857581 2000.49881816 C1050.90004525 2000.49907645 1049.93151468 2000.49933474 1048.93363471 2000.49960086 C1045.01512483 2000.50064711 1041.09661495 2000.50169554 1037.17810507 2000.50274668 C970.14399889 2000.52071247 903.10989246 2000.53608999 836.07578421 2000.54350571 C830.81073501 2000.54408968 825.54568582 2000.54468694 820.28063662 2000.54528333 C819.23623184 2000.54540145 818.19182706 2000.54551957 817.11577365 2000.54564127 C806.53472147 2000.54683863 795.95366928 2000.5480474 785.37261711 2000.5492738 C783.25110691 2000.54951904 781.12959672 2000.54976289 779.00808653 2000.55000537 C710.90153862 2000.5577918 642.79500797 2000.58016731 574.6884676 2000.6126818 C525.74999566 2000.63603745 476.81152716 2000.65758406 427.87304974 2000.66468811 C426.36234623 2000.66490864 426.36234623 2000.66490864 424.82112347 2000.66513363 C402.70821366 2000.66831897 380.59530387 2000.6703695 358.48239386 2000.67136118 C349.58415325 2000.67177589 340.68591264 2000.67233079 331.78767204 2000.67292309 C330.81384287 2000.67298376 329.84001369 2000.67304443 328.83667454 2000.67310693 C297.50674528 2000.67512043 266.17683642 2000.68934055 234.84691428 2000.70986809 C203.27219947 2000.73048255 171.69750821 2000.7383258 140.12278735 2000.72879033 C135.75141583 2000.72747202 131.38004429 2000.72629393 127.00867271 2000.7251997 C126.15182891 2000.72497985 125.29498511 2000.72476 124.41217634 2000.72453349 C110.89054202 2000.72142934 97.36895298 2000.73170596 83.84732914 2000.74767525 C70.52393667 2000.76312909 57.20060629 2000.76411496 43.87721157 2000.75012701 C36.76146467 2000.74304297 29.64585962 2000.74208421 22.53012709 2000.7596871 C-21.29946721 2000.8628135 -62.39935593 1998.25846227 -104.34076691 1984.25447559 C-105.10195831 1984.00117481 -105.86314972 1983.74787403 -106.64740753 1983.48689747 C-133.34522061 1974.45175971 -159.37773624 1961.64654672 -182.34076691 1945.25447559 C-183.21990753 1944.63572559 -184.09904816 1944.01697559 -185.00482941 1943.37947559 C-195.79124764 1935.67045046 -206.17861748 1927.53897149 -215.89545441 1918.51619434 C-218.00613131 1916.5639868 -220.15304247 1914.68141281 -222.34076691 1912.81697559 C-230.40311194 1905.77685018 -237.63820304 1898.16021395 -244.30170441 1889.78963184 C-246.04521175 1887.62193785 -247.84293246 1885.55926789 -249.71576691 1883.50447559 C-293.71987283 1833.51824467 -321.62812399 1760.42431597 -321.46841741 1693.89007229 C-321.47006818 1692.90148967 -321.47171896 1691.91290705 -321.47341977 1690.89436739 C-321.47772405 1687.59100287 -321.47494997 1684.28768339 -321.47219467 1680.98431778 C-321.47384528 1678.57812258 -321.475932 1676.17192764 -321.47841477 1673.76573315 C-321.48281502 1668.52249144 -321.48411656 1663.27925836 -321.48268643 1658.03601538 C-321.48056119 1650.18645526 -321.48418444 1642.33690487 -321.4889012 1634.48734626 C-321.49676736 1621.10774727 -321.49986289 1607.72815096 -321.50034714 1594.34854984 C-321.50084969 1580.78992743 -321.50349827 1567.23130801 -321.50875473 1553.67268658 C-321.50908486 1552.81618675 -321.509415 1551.95968693 -321.50975513 1551.07723256 C-321.51110515 1547.58879004 -321.51246782 1544.10034752 -321.51384724 1540.61190501 C-321.53014648 1499.31899912 -321.53653557 1458.0260938 -321.54129511 1416.73318523 C-321.54367883 1396.16832798 -321.54738242 1375.60347105 -321.55133221 1355.03861404 C-321.56399684 1289.06180498 -321.57478037 1223.08499593 -321.57817267 1157.10818568 C-321.57833491 1153.95505656 -321.57850046 1150.80192745 -321.57866705 1147.64879834 C-321.57900085 1141.32522255 -321.57933133 1135.00164675 -321.57966161 1128.67807096 C-321.5800485 1121.27481164 -321.58043811 1113.87155231 -321.58083267 1106.46829298 C-321.58094509 1104.34942561 -321.58105651 1102.23055823 -321.58116693 1100.11169086 C-321.58471566 1032.07434619 -321.5997911 964.03701208 -321.62310467 895.99967144 C-321.63985087 847.10845626 -321.65532329 798.21724308 -321.65983963 749.32602501 C-321.65993312 748.32012065 -321.6600266 747.3142163 -321.66012292 746.27782999 C-321.66214217 724.19337162 -321.66329805 702.10891329 -321.66365151 680.02445483 C-321.66378767 672.1216585 -321.66399667 664.21886216 -321.66424476 656.31606583 C-321.66430632 654.35008941 -321.66436464 652.38411298 -321.66441971 650.41813656 C-321.66533877 619.11683522 -321.67529799 587.81554493 -321.68987719 556.51424722 C-321.70450808 524.97572381 -321.70952582 493.43721393 -321.70145765 461.89868772 C-321.70034237 457.53488535 -321.69933168 453.17108295 -321.69838333 448.80728054 C-321.69819336 447.95190196 -321.6980034 447.09652337 -321.69780767 446.21522422 C-321.69508022 432.70285839 -321.70239606 419.19051769 -321.7139567 405.67815732 C-321.72512976 392.37229661 -321.7254966 379.06647122 -321.71458651 365.76060994 C-321.70851909 357.97280028 -321.71050676 350.18509757 -321.72483849 342.39729813 C-321.73458614 336.59374139 -321.72843034 330.79028353 -321.71642816 324.98673499 C-321.71401383 322.66961817 -321.71650762 320.35248897 -321.72482464 318.03538582 C-321.79338403 297.57205661 -320.12358069 277.21863696 -316.09076691 257.12947559 C-315.88169708 256.07147755 -315.67262726 255.0134795 -315.45722198 253.92342091 C-307.10745851 213.27683272 -290.3980629 173.12714835 -266.34076691 139.25447559 C-265.54346357 138.10894027 -264.74661468 136.96308855 -263.95014191 135.81697559 C-256.74434411 125.51800484 -248.92624154 115.8781179 -240.45404816 106.58650684 C-238.56700154 104.50412823 -236.73018458 102.38944496 -234.90326691 100.25447559 C-228.28281622 92.66854251 -221.01321203 85.75995791 -213.34076691 79.25447559 C-212.39717316 78.43334278 -211.45357941 77.61220997 -210.48139191 76.76619434 C-168.25132638 40.19969368 -117.04288753 15.95894107 -62.34076691 5.25447559 C-61.08803986 5.00794239 -61.08803986 5.00794239 -59.81000519 4.75642872 C-39.93956233 0.94352924 -20.19105559 -0.04200135 0 0 Z " fill="#FEFEFE" transform="translate(321.3407669067383,-0.25447559356689453)"/>
<path d="M0 0 C1.11134308 -0.00108765 2.22268616 -0.00217529 3.3677063 -0.0032959 C58.90735438 0.00285564 115.71039397 5.73531946 168.6875 23.1875 C169.74018066 23.52587891 170.79286133 23.86425781 171.87744141 24.21289062 C209.45439294 36.34373972 244.36280138 53.44914961 276.6875 76.1875 C277.32316895 76.63432129 277.95883789 77.08114258 278.61376953 77.54150391 C282.05661879 79.98808955 285.3824281 82.55877297 288.6875 85.1875 C289.26322754 85.63077637 289.83895508 86.07405273 290.43212891 86.53076172 C300.33186422 94.16610113 309.34890255 102.55599919 318.1875 111.375 C318.69406128 111.87806671 319.20062256 112.38113342 319.72253418 112.89944458 C326.49626929 119.64718611 332.77385567 126.6633909 338.6875 134.1875 C339.21988281 134.85515381 339.75226562 135.52280762 340.30078125 136.21069336 C369.99067515 173.75283611 388.3996479 218.00812557 397.5625 264.75 C397.70820435 265.48878387 397.85390869 266.22756775 398.00402832 266.98873901 C400.86787385 281.68100408 402.58755371 296.30831176 403.24169922 311.26391602 C403.28548203 312.22390755 403.32926483 313.18389908 403.37437439 314.17298126 C403.48072777 316.51107246 403.58506957 318.84923423 403.6875 321.1875 C367.77938987 321.21036516 331.87128101 321.22799761 295.96316511 321.23856533 C291.72845446 321.23981611 287.49374383 321.24111042 283.2590332 321.24243164 C281.99439662 321.24282511 281.99439662 321.24282511 280.70421182 321.24322652 C267.03464824 321.24758347 253.36508884 321.25547115 239.69552774 321.2646528 C225.67997937 321.27398866 211.6644332 321.27955547 197.64888185 321.28158849 C188.99341679 321.28296386 180.33796356 321.2873152 171.68250214 321.29541647 C165.75537352 321.30068309 159.82825105 321.30230449 153.90112025 321.30100138 C150.47626259 321.30035787 147.05142567 321.30137697 143.62657166 321.30670547 C139.9222192 321.3116351 136.21791856 321.310501 132.51356506 321.30775452 C131.41923049 321.31066736 130.32489591 321.3135802 129.19739968 321.31658131 C128.21309107 321.31459026 127.22878247 321.31259921 126.21464634 321.31054783 C125.35837699 321.31092755 124.50210765 321.31130727 123.61989075 321.3116985 C121.6875 321.1875 121.6875 321.1875 120.6875 320.1875 C120.44911603 318.58686822 120.26713419 316.97776536 120.109375 315.3671875 C117.04368506 286.34687694 106.39842583 259.04621311 83.5625 239.6875 C67.63937763 227.12810993 50.49692818 218.64803248 30.6875 214.1875 C29.54933838 213.92163086 28.41117676 213.65576172 27.23852539 213.38183594 C16.66589945 211.13870655 6.40658602 210.69255138 -4.38452148 210.74145508 C-7.24340624 210.74998034 -10.1002944 210.72105575 -12.95898438 210.68945312 C-40.95742738 210.58347161 -67.3622087 219.93999336 -87.70703125 239.48828125 C-104.31021767 256.77030324 -110.90383114 280.1236614 -110.75854492 303.59423828 C-110.74999993 305.68751614 -110.77901233 307.77807988 -110.81054688 309.87109375 C-110.92156804 331.80595614 -102.22004222 353.72106944 -86.75 369.4375 C-74.7431032 381.0641588 -60.09408545 389.60655918 -45.3125 397.1875 C-43.92683838 397.8997876 -43.92683838 397.8997876 -42.51318359 398.62646484 C-1.77455461 419.34068142 41.55782501 434.24450665 84.85671997 448.57015991 C140.13331248 466.86821518 195.12443366 487.0324951 247.6875 512.1875 C248.7305127 512.68636719 249.77352539 513.18523438 250.84814453 513.69921875 C294.3320667 534.63716797 335.05227785 564.68993523 364.6875 603.1875 C365.60652126 604.28734013 366.53003334 605.38343705 367.45703125 606.4765625 C391.20942122 634.75872925 406.52948657 670.90270608 412.6875 707.1875 C412.85137207 708.14366211 413.01524414 709.09982422 413.18408203 710.08496094 C415.49689795 723.77733443 417.45092469 737.29481909 417.6875 751.1875 C417.70796387 752.1460791 417.72842773 753.1046582 417.74951172 754.09228516 C419.29694581 836.48995325 395.36556581 915.86686224 338.6875 977.1875 C337.46160156 978.56808594 337.46160156 978.56808594 336.2109375 979.9765625 C325.67876595 991.75146816 314.12280362 1002.44235519 301.6875 1012.1875 C300.68460938 1012.98542969 299.68171875 1013.78335938 298.6484375 1014.60546875 C284.49475072 1025.77084061 269.22806683 1035.09291144 253.6875 1044.1875 C252.94661133 1044.62594238 252.20572266 1045.06438477 251.44238281 1045.51611328 C225.36873412 1060.88242008 196.06444386 1072.91824165 166.6875 1080.1875 C165.39285642 1080.52199812 164.09857927 1080.85791794 162.8046875 1081.1953125 C159.49823767 1082.04363397 156.18811889 1082.86356095 152.86914062 1083.66064453 C151.36654976 1084.02351283 149.86531078 1084.39201006 148.36523438 1084.76513672 C136.74840516 1087.64612894 125.06578315 1089.91928763 113.25 1091.8125 C112.06986328 1092.00642334 110.88972656 1092.20034668 109.67382812 1092.40014648 C105.35208168 1093.06757475 101.02707253 1093.64947998 96.6875 1094.1875 C95.65404449 1094.31631561 94.62058899 1094.44513123 93.55581665 1094.57785034 C72.09298965 1097.16046995 50.86052606 1097.62738277 29.2635498 1097.5100708 C25.89850088 1097.49658838 22.53358291 1097.50192292 19.16851902 1097.5069313 C0.90896578 1097.52751557 -17.13997936 1097.15746848 -35.3125 1095.1875 C-36.89318954 1095.02817315 -38.47399679 1094.87000879 -40.05493164 1094.71313477 C-44.33244392 1094.28078934 -48.60430716 1093.80740596 -52.875 1093.3125 C-53.61797333 1093.22657593 -54.36094666 1093.14065186 -55.12643433 1093.05212402 C-87.51626634 1089.27410634 -119.30490938 1082.30306094 -150.3125 1072.1875 C-151.87867401 1071.69067355 -153.44507359 1071.19455752 -155.01171875 1070.69921875 C-189.03329066 1059.80879323 -221.75984037 1044.25905456 -251.3125 1024.1875 C-252.03066895 1023.7013623 -252.74883789 1023.21522461 -253.48876953 1022.71435547 C-263.25864701 1016.0632152 -272.44484785 1008.9965139 -281.3125 1001.1875 C-282.0240625 1000.57519531 -282.735625 999.96289062 -283.46875 999.33203125 C-311.38839432 975.24561679 -335.16342158 947.68820845 -353.09130859 915.37890625 C-354.18402825 913.41804027 -355.30023412 911.47337055 -356.42578125 909.53125 C-368.33523533 888.3376724 -375.79786722 864.64467534 -382.0625 841.25 C-382.34250854 840.20610107 -382.34250854 840.20610107 -382.62817383 839.14111328 C-385.83521861 826.71903502 -387.86827843 814.23433869 -389.24780273 801.49902344 C-389.49993729 799.18807473 -389.76791966 796.87932946 -390.03710938 794.5703125 C-390.20668554 793.04698116 -390.37533606 791.52354643 -390.54296875 790 C-390.6210527 789.33701904 -390.69913666 788.67403809 -390.77958679 787.9909668 C-391.54990768 780.64666429 -391.3125 773.71003065 -391.3125 766.1875 C-299.5725 766.1875 -207.8325 766.1875 -113.3125 766.1875 C-111.8275 775.0975 -111.8275 775.0975 -110.3125 784.1875 C-103.91237507 815.95108296 -88.70772134 847.27099795 -61.23632812 865.95214844 C-39.93825875 879.62831989 -16.17112489 887.19181329 9.1640625 887.42578125 C10.04391312 887.43562042 10.92376373 887.44545959 11.83027649 887.45559692 C51.33296581 887.8066778 88.88430238 882.64795122 118.875 854.5 C124.50249464 848.69126559 128.61021308 842.12559935 132.6875 835.1875 C133.10773437 834.50300781 133.52796875 833.81851563 133.9609375 833.11328125 C141.23668633 820.16244834 144.08104904 803.10879501 144 788.5 C143.99262817 786.92061646 143.99262817 786.92061646 143.98510742 785.30932617 C143.5838447 758.46999415 132.0534085 737.1396258 113.38256836 718.51171875 C102.46090922 707.93356225 89.92265093 699.57782135 76.6875 692.1875 C76.02669434 691.8152832 75.36588867 691.44306641 74.68505859 691.05957031 C38.05123339 670.57257295 -4.067847 658.1985353 -44.12695312 646.1484375 C-54.87913545 642.90498336 -65.60085617 639.56211709 -76.3125 636.1875 C-77.04617798 635.95653625 -77.77985596 635.72557251 -78.5357666 635.48760986 C-131.71659255 618.72313805 -184.69148361 599.83758574 -234.3125 574.1875 C-235.25246826 573.70700195 -235.25246826 573.70700195 -236.21142578 573.21679688 C-270.58642441 555.60475276 -302.6456186 529.93575897 -327.3125 500.1875 C-327.76173828 499.65205566 -328.21097656 499.11661133 -328.67382812 498.56494141 C-346.26252645 477.5562184 -360.45562366 455.84012377 -370.3125 430.1875 C-370.62316406 429.38054687 -370.93382812 428.57359375 -371.25390625 427.7421875 C-398.87262843 354.93969808 -395.69169612 261.63354407 -363.875 190.6875 C-362.39564705 187.49974747 -360.86535409 184.34000472 -359.3125 181.1875 C-358.93544922 180.41035645 -358.55839844 179.63321289 -358.16992188 178.83251953 C-346.95345992 155.90140252 -332.16894765 135.17538068 -314.67285156 116.64941406 C-312.74974296 114.58272807 -310.90847943 112.44804483 -309.0625 110.3125 C-306.05882857 106.91328336 -302.88901624 103.91353799 -299.42578125 100.98828125 C-297.10204831 99.00816871 -294.86896028 96.94495366 -292.625 94.875 C-286.78645399 89.62208323 -280.62108744 84.85384658 -274.3125 80.1875 C-273.70615723 79.73536133 -273.09981445 79.28322266 -272.47509766 78.81738281 C-255.54469155 66.26696054 -237.35656452 55.06708966 -218.265625 46.11328125 C-216.17416183 45.12192771 -214.102881 44.09461616 -212.03125 43.0625 C-192.91291472 33.63526825 -172.81796766 26.00830627 -152.3125 20.1875 C-151.37019531 19.91873047 -150.42789063 19.64996094 -149.45703125 19.37304688 C-118.86522011 10.77522031 -87.98314766 5.41897424 -56.36669922 2.56201172 C-52.91800727 2.24927868 -49.47705199 1.88482976 -46.03515625 1.50390625 C-30.7199501 -0.06893028 -15.37987906 0.00808722 0 0 Z " fill="#F58B3F" transform="translate(550.3125,446.8125)"/>
<path d="M0 0 C1.29131652 0.00436926 1.29131652 0.00436926 2.60872024 0.00882679 C3.96982482 0.00754515 3.96982482 0.00754515 5.35842645 0.00623763 C8.42327684 0.00458004 11.48807344 0.01010873 14.55291885 0.01555592 C16.74023065 0.01583776 18.92754254 0.01568012 21.11485428 0.01511341 C27.07329094 0.0148253 33.03170766 0.02072417 38.99013966 0.02768737 C45.2095056 0.03391871 51.42887193 0.03452453 57.64824051 0.03571278 C68.09368363 0.03847246 78.53911989 0.04472795 88.98455948 0.05364186 C99.74530129 0.0628153 110.50604111 0.06989647 121.26678604 0.07414967 C122.26106148 0.07454375 122.26106148 0.07454375 123.2754233 0.0749458 C126.60061647 0.0762508 129.92580965 0.07751227 133.25100285 0.0787577 C160.85416943 0.08922357 188.4573278 0.10682427 216.06048721 0.12908131 C217.55049298 4.18980449 219.04023033 8.25062601 220.52973884 12.3115316 C221.03451817 13.68762174 221.53936578 15.06368683 222.0442881 16.4397245 C226.45852468 28.46984239 230.83423691 40.51354386 235.18548721 52.56658131 C235.91002218 54.57181653 236.63463375 56.57702407 237.35931534 58.58220631 C238.85277005 62.71475111 240.3459079 66.84741017 241.83880752 70.98015553 C245.0578923 79.89063148 248.2810585 88.7996309 251.50402969 97.70870167 C253.27302675 102.59876388 255.04174233 107.48892788 256.81048721 112.37908131 C257.5188192 114.33741513 258.22715254 116.29574846 258.93548721 118.25408131 C293.99798721 215.19158131 329.06048721 312.12908131 416.18548721 553.00408131 C416.53613235 553.9735117 416.88677749 554.94294209 417.24804825 555.94174916 C417.95617889 557.89952272 418.66430878 559.85729657 419.37243789 561.81507069 C421.14636602 566.71947071 422.92030757 571.62386588 424.69427627 576.52825123 C427.84488012 585.23857714 430.99540727 593.94893073 434.14540237 602.65947682 C435.8670294 607.42020288 437.58875406 612.18089363 439.31048721 616.94158131 C439.65632858 617.89788441 440.00216995 618.85418751 440.35849136 619.83946949 C444.57778422 631.5061 448.79973921 643.17176191 453.02533096 654.83611256 C462.30349327 680.44869314 471.56986085 706.06543677 480.81048721 731.69158131 C481.03840832 732.32363735 481.26632942 732.9556934 481.50115722 733.60690266 C482.17224794 735.46796374 482.84329655 737.32904001 483.51434463 739.19011647 C484.1628463 740.98866078 484.1628463 740.98866078 484.824449 742.82353932 C485.66957353 745.16834097 486.51424033 747.51330766 487.35841507 749.85845143 C489.46299013 755.70441528 491.57475016 761.54761693 493.69915909 767.38640553 C494.11997757 768.54623448 494.54079605 769.70606343 494.97436661 770.90103871 C495.77447827 773.10580434 496.57705619 775.30967699 497.38244766 777.51251942 C497.91192001 778.97388577 497.91192001 778.97388577 498.45208877 780.46477467 C498.76390091 781.32066685 499.07571304 782.17655903 499.39697403 783.05838734 C500.06048721 785.12908131 500.06048721 785.12908131 500.06048721 787.12908131 C433.07048721 787.12908131 366.08048721 787.12908131 297.06048721 787.12908131 C285.06048721 751.12908131 285.06048721 751.12908131 280.66204971 737.89861256 C279.33681595 733.91283963 278.01139349 729.92713046 276.68548721 725.94158131 C276.3345198 724.88640309 275.9835524 723.83122486 275.62194961 722.74407154 C271.77859091 711.19525995 267.91434563 699.6544469 263.96673721 688.14080006 C263.6437767 687.19856083 263.32081619 686.2563216 262.988069 685.28552967 C261.47732438 680.88209267 259.96140597 676.4805215 258.43792862 672.08147389 C257.89801515 670.51402249 257.35813682 668.946559 256.81829971 667.37908131 C256.46318313 666.36203366 256.46318313 666.36203366 256.10089248 665.32443959 C254.14429606 659.62934641 252.65648674 653.98107959 251.06048721 648.12908131 C153.71048721 648.12908131 56.36048721 648.12908131 -43.93951279 648.12908131 C-44.59951279 651.09908131 -45.25951279 654.06908131 -45.93951279 657.12908131 C-46.45829851 658.91523386 -47.00620154 660.69347599 -47.59673935 662.45720631 C-47.91230286 663.40685261 -48.22786637 664.35649891 -48.5529924 665.33492237 C-48.89195038 666.33949482 -49.23090836 667.34406727 -49.58013779 668.37908131 C-49.93887482 669.4538271 -50.29761185 670.52857289 -50.6672197 671.63588673 C-51.83672928 675.13517339 -53.01291505 678.63217223 -54.18951279 682.12908131 C-55.00624489 684.56666217 -55.82273012 687.00432576 -56.63897568 689.44206959 C-63.1311156 708.8096181 -69.70089657 728.15044077 -76.33892685 747.46843678 C-77.69769257 751.42303327 -79.05234962 755.37902326 -80.40562302 759.33550221 C-81.4429694 762.36788121 -82.48159835 765.3998197 -83.52059799 768.43163258 C-84.00281024 769.83917647 -84.48465076 771.24684779 -84.9660936 772.65465504 C-85.61862179 774.56196497 -86.27315052 776.46859013 -86.92779404 778.37517506 C-87.29429062 779.44437184 -87.6607872 780.51356861 -88.03838974 781.61516529 C-88.93951279 784.12908131 -88.93951279 784.12908131 -89.93951279 786.12908131 C-155.93951279 786.12908131 -221.93951279 786.12908131 -289.93951279 786.12908131 C-289.29987029 782.93086883 -288.74073842 780.29662622 -287.67462021 777.30339772 C-287.2898124 776.21540379 -287.2898124 776.21540379 -286.89723068 775.10543019 C-286.47536736 773.92991093 -286.47536736 773.92991093 -286.04498154 772.73064381 C-285.59683342 771.46968388 -285.59683342 771.46968388 -285.13963181 770.18325001 C-284.13913574 767.37218913 -283.13324461 764.56309373 -282.12701279 761.75408131 C-281.40833274 759.74044255 -280.68974774 757.72676988 -279.97125107 755.71306568 C-273.64973792 738.02090415 -267.22737407 720.36545827 -260.79449326 702.71355397 C-254.4120672 685.19789518 -248.07153556 667.66750243 -241.75201279 650.12908131 C-241.28419427 648.8308818 -240.81636998 647.53268437 -240.34853989 646.23448902 C-239.42162098 643.66233653 -238.49470478 641.09018306 -237.56779343 638.51802784 C-237.34110411 637.88897667 -237.11441479 637.2599255 -236.8808561 636.61181217 C-236.42607608 635.34980071 -235.97130944 634.08778444 -235.51655632 632.82576329 C-231.06251215 620.46522751 -226.59749573 608.10867991 -222.12701279 595.75408131 C-221.78497818 594.80879566 -221.44294358 593.86351002 -221.09054428 592.88957936 C-219.38852113 588.18582094 -217.68628946 583.48213802 -215.98394638 578.77849537 C-212.82372975 570.04634278 -209.66549356 561.31347381 -206.50704819 552.58068043 C-204.73461182 547.68012011 -202.96205648 542.77960282 -201.18951279 537.87908131 C-200.48117888 535.92074818 -199.77284555 533.96241485 -199.06451279 532.00408131 C-177.81451292 473.25408166 -177.81451292 473.25408166 -176.75195175 470.31641346 C-176.04382111 468.35863989 -175.33569122 466.40086605 -174.62756211 464.44309193 C-172.85363398 459.5386919 -171.07969243 454.63429673 -169.30572373 449.72991139 C-166.1551456 441.01965658 -163.00464591 432.30937346 -159.85467392 423.59889942 C-152.17039976 402.34995411 -144.48249857 381.10232727 -136.78927475 359.85662037 C-126.64308514 331.83752702 -126.64308514 331.83752702 -116.50201279 303.81658131 C-116.16686661 302.89025898 -115.83172043 301.96393666 -115.48641831 301.00954396 C-111.16918901 289.07546566 -106.85991272 277.13853296 -102.55670029 265.19939381 C-102.32515936 264.55700827 -102.09361843 263.91462273 -101.85506111 263.25277096 C-100.91062561 260.63253484 -99.96620493 258.01229339 -99.02178341 255.39205223 C-98.54539161 254.07033596 -98.06899728 252.74862061 -97.59260041 251.42690617 C-97.11545476 250.10311423 -96.63831497 248.77932018 -96.16118103 247.45552403 C-89.80018556 229.80759203 -83.41866714 212.16735849 -76.99673325 194.54149586 C-71.26259194 178.80067964 -65.57584693 163.04291796 -59.89756256 147.28188664 C-51.78638721 124.76802288 -43.64205543 102.2666264 -35.4509874 79.7816692 C-31.21919047 68.16261465 -26.99996425 56.53918603 -22.80389839 44.90718609 C-22.06307295 42.85377621 -21.32189155 40.80049518 -20.58058029 38.74726063 C-20.09353444 37.39821603 -19.60648915 36.04917124 -19.11944443 34.70012623 C-18.88044072 34.03814889 -18.64143702 33.37617155 -18.39519078 32.69413429 C-16.97913878 28.77120312 -15.56565209 24.84735904 -14.15397888 20.92285019 C-13.08073063 17.94134003 -12.00394899 14.96110581 -10.92779404 11.98064381 C-10.53715775 10.89189457 -10.14652146 9.80314533 -9.7440477 8.6814037 C-9.38743057 7.69556797 -9.03081345 6.70973225 -8.66338974 5.69402272 C-8.35287171 4.83177082 -8.04235367 3.96951893 -7.722426 3.08113819 C-6.14530122 -0.85114605 -3.943305 0.01012674 0 0 Z " fill="#000000" transform="translate(1329.9395127892494,678.8709186911583)"/>
<path d="M0 0 C2.23343145 0.0107084 4.46605591 0.0000544 6.69946289 -0.01269531 C43.7287717 -0.05064411 76.21998227 16.24426754 102.01391602 41.96386719 C118.02725464 58.50845401 127.70556891 78.41295684 134.30297852 100.26074219 C134.81731445 101.85208984 134.81731445 101.85208984 135.34204102 103.47558594 C137.93729685 113.69836195 138.62261208 123.74607444 138.55297852 134.26074219 C138.56071289 135.42863281 138.56844727 136.59652344 138.57641602 137.79980469 C138.55112206 149.2073789 137.101343 159.99297382 133.49047852 170.82324219 C133.22477051 171.63696289 132.9590625 172.45068359 132.68530273 173.2890625 C120.26810706 210.72642445 95.52806119 239.19763633 60.20922852 256.96386719 C55.6077452 259.18087932 50.95102244 261.05701387 46.11547852 262.69824219 C45.46490479 262.92084717 44.81433105 263.14345215 44.14404297 263.37280273 C31.61920491 267.32553143 19.18726893 268.7293104 6.11889648 268.54199219 C3.90795034 268.51045652 1.69772284 268.50095778 -0.51342773 268.49511719 C-10.91022665 268.44016912 -20.89334184 268.16818547 -30.88452148 265.07324219 C-31.61082764 264.8518457 -32.33713379 264.63044922 -33.08544922 264.40234375 C-69.48410315 253.04681895 -98.32170796 229.83416174 -116.44702148 196.13574219 C-121.30216999 186.87173077 -124.56183356 177.44919828 -127.15063477 167.3359375 C-127.63931906 165.47989794 -128.20801157 163.64535417 -128.78686523 161.81542969 C-131.07914116 152.86276407 -130.8795581 143.63546124 -130.88452148 134.44824219 C-130.89676758 133.26681641 -130.90901367 132.08539062 -130.92163086 130.86816406 C-130.93486698 122.81619017 -130.17121046 115.17328102 -128.69702148 107.26074219 C-128.50184937 106.18215942 -128.50184937 106.18215942 -128.30273438 105.08178711 C-124.01711485 83.00779161 -113.1958052 63.22740398 -98.69702148 46.26074219 C-97.99963867 45.42929687 -97.30225586 44.59785156 -96.58374023 43.74121094 C-91.17325481 37.48503685 -85.27146957 32.2667148 -78.69702148 27.26074219 C-77.91842773 26.66648437 -77.13983398 26.07222656 -76.33764648 25.45996094 C-61.01773888 14.27848475 -44.14646478 6.6164007 -25.69702148 2.26074219 C-24.93228516 2.07898438 -24.16754883 1.89722656 -23.37963867 1.70996094 C-15.59484127 0.08282339 -7.91362364 -0.04504745 0 0 Z " fill="#000000" transform="translate(1430.697021484375,401.7392578125)"/>
<path d="M0 0 C2.72571286 2.72571286 3.48371988 5.88885055 4.66699219 9.47094727 C4.92764969 10.24418839 5.18830719 11.0174295 5.4568634 11.81410217 C6.32580054 14.39635996 7.18626462 16.98136257 8.046875 19.56640625 C8.6601157 21.39365262 9.27391609 23.22071124 9.88824463 25.04759216 C11.51887893 29.90127846 13.1425417 34.75726835 14.7645874 39.61383057 C17.30518816 47.21612001 19.85717307 54.81460303 22.40677452 62.41387749 C23.36503594 65.27078346 24.32252985 68.12794592 25.27998352 70.98512268 C30.4280051 86.33946361 35.65050434 101.66770715 40.89361095 116.98979187 C41.17444688 117.81050674 41.4552828 118.63122162 41.74462891 119.47680664 C42.16027462 120.69141319 42.16027462 120.69141319 42.58431721 121.93055725 C45.26579853 129.77005386 47.92756216 137.61616503 50.58203125 145.46484375 C50.79858494 146.10509554 51.01513863 146.74534733 51.23825455 147.40500069 C52.32143979 150.60791444 53.40415908 153.81098542 54.48657227 157.01416016 C56.82910828 163.94624118 59.1744019 170.87738973 61.51953125 177.80859375 C61.75365849 178.50061764 61.98778572 179.19264153 62.22900772 179.90563583 C66.46111988 192.41423816 70.70266539 204.91961828 74.95349121 217.421875 C75.6466569 219.46070226 76.33961218 221.49960107 77.03234863 223.53857422 C80.72116842 234.39609911 84.42560295 245.24795871 88.16015625 256.08984375 C89.14662577 258.95890785 90.13279893 261.82807366 91.11889648 264.69726562 C92.03870325 267.36839399 92.96356137 270.03773609 93.88867188 272.70703125 C94.4377405 274.30330271 94.98658257 275.89965213 95.53515625 277.49609375 C95.78733414 278.21844711 96.03951202 278.94080048 96.29933167 279.68504333 C97.29314649 282.59151631 98 284.90405134 98 288 C33.98 288 -30.04 288 -96 288 C-94.0482712 280.84366105 -92.03785135 273.87629026 -89.62219238 266.88781738 C-89.29856311 265.94183276 -88.97493383 264.99584814 -88.64149761 264.02119732 C-87.94288544 261.97958202 -87.24286286 259.93844888 -86.54155636 257.89775753 C-84.61841442 252.29934845 -82.70803662 246.69658532 -80.79711914 241.09399414 C-80.39949293 239.92873121 -80.00186671 238.76346828 -79.59219122 237.56289434 C-75.40981334 225.2929921 -71.2981112 212.99982209 -67.20117188 200.70117188 C-66.83188788 199.59292022 -66.46260389 198.48466856 -66.08212948 197.34283352 C-63.77455286 190.41650037 -61.46927902 183.48940244 -59.16455269 176.56212044 C-57.11245194 170.39558624 -55.05827228 164.22974462 -53.00427246 158.06384277 C-49.57825581 147.77871028 -46.15317272 137.49326736 -42.72900391 127.20751953 C-42.51458363 126.5634309 -42.30016336 125.91934228 -42.07924551 125.25573581 C-40.77232746 121.32991624 -39.4654363 117.40408772 -38.15855122 113.47825718 C-36.16743739 107.497044 -34.17627872 101.51584576 -32.18505859 95.53466797 C-31.96606563 94.87686094 -31.74707266 94.21905392 -31.52144355 93.54131335 C-27.87540951 82.58954781 -24.22819295 71.63817649 -20.58016443 60.68707514 C-18.1463164 53.38055803 -15.7139288 46.07355689 -13.28267479 38.76617622 C-11.78345744 34.26109742 -10.28301446 29.75642756 -8.78222847 25.25187111 C-8.08547974 23.15974572 -7.38925179 21.06744682 -6.69357109 18.97496605 C-5.74813449 16.13149296 -4.80087863 13.28863248 -3.85314941 10.44592285 C-3.43718105 9.19262531 -3.43718105 9.19262531 -3.01280928 7.91400862 C-1.11409528 2.22819055 -1.11409528 2.22819055 0 0 Z " fill="#FCFCFC" transform="translate(1433,891)"/>
</svg>
